<?xml version="1.0" encoding="UTF-8" standalone="no"?>
<!-- Created with Inkscape (http://www.inkscape.org/) -->

<svg
   xmlns:dc="http://purl.org/dc/elements/1.1/"
   xmlns:cc="http://creativecommons.org/ns#"
   xmlns:rdf="http://www.w3.org/1999/02/22-rdf-syntax-ns#"
   xmlns:svg="http://www.w3.org/2000/svg"
   xmlns="http://www.w3.org/2000/svg"
   xmlns:sodipodi="http://sodipodi.sourceforge.net/DTD/sodipodi-0.dtd"
   xmlns:inkscape="http://www.inkscape.org/namespaces/inkscape"
   width="720"
   height="400"
   id="svg2"
   version="1.1"
   inkscape:version="0.47 r22583"
   sodipodi:docname="doodles.svg">
  <defs
     id="defs4">
    <inkscape:path-effect
       tgtlength_rdm="0.3;1"
       tgtlength="100"
       tgtscale="10"
       tgt_places_rdmness="1;1"
       nbtangents="0"
       tremble_frequency="1"
       tremble_size="5;1"
       parallel_offset="5;-195306638"
       ends_tolerance="0.1;1"
       strokeoverlap_rdm="0.3;1"
       strokeoverlap="0.3"
       strokelength_rdm="0.3;315804235"
       strokelength="100"
       nbiter_approxstrokes="4"
       is_visible="true"
       id="path-effect4134"
       effect="sketch" />
    <inkscape:path-effect
       effect="sketch"
       id="path-effect4130"
       is_visible="true"
       nbiter_approxstrokes="5"
       strokelength="100"
       strokelength_rdm="0.3;1"
       strokeoverlap="0.3"
       strokeoverlap_rdm="0.3;1"
       ends_tolerance="0.1;1"
       parallel_offset="5;1"
       tremble_size="5;-1359049126"
       tremble_frequency="1"
       nbtangents="0"
       tgt_places_rdmness="1;1"
       tgtscale="10"
       tgtlength="100"
       tgtlength_rdm="0.3;1" />
    <inkscape:path-effect
       effect="rough_hatches"
       id="path-effect4099"
       is_visible="true"
       direction="371.54007,1026.1506 , 9.66183,13.5"
       dist_rdm="75;1"
       growth="0"
       do_bend="true"
       bender="371.54007,1031.1506 , 5,0"
       bottom_edge_variation="3.5486772;1"
       top_edge_variation="3.5486772;1"
       bottom_tgt_variation="0;1"
       top_tgt_variation="0;1"
       scale_bf="1"
       scale_bb="1"
       scale_tf="1"
       scale_tb="1"
       top_smth_variation="0;1"
       bottom_smth_variation="0;1"
       fat_output="true"
       stroke_width_top="1"
       stroke_width_bottom="1"
       front_thickness="1"
       back_thickness="0.25" />
    <inkscape:path-effect
       effect="rough_hatches"
       id="path-effect4097"
       is_visible="true"
       direction="399.07869,1088.2114 , 13.392517,6.5"
       dist_rdm="75;1"
       growth="0"
       do_bend="true"
       bender="399.07869,1093.2114 , 5,0"
       bottom_edge_variation="13.80557;1"
       top_edge_variation="13.80557;1"
       bottom_tgt_variation="0;1"
       top_tgt_variation="0;1"
       scale_bf="1"
       scale_bb="1"
       scale_tf="1"
       scale_tb="1"
       top_smth_variation="0;1"
       bottom_smth_variation="0;1"
       fat_output="true"
       stroke_width_top="1"
       stroke_width_bottom="1"
       front_thickness="1"
       back_thickness="0.25" />
    <inkscape:path-effect
       effect="sketch"
       id="path-effect4072"
       is_visible="true"
       nbiter_approxstrokes="1"
       strokelength="100"
       strokelength_rdm="0.3;1"
       strokeoverlap="0.3"
       strokeoverlap_rdm="0.3;1"
       ends_tolerance="0.1;1"
       parallel_offset="5;1"
       tremble_size="5;1"
       tremble_frequency="1"
       nbtangents="0"
       tgt_places_rdmness="1;1"
       tgtscale="10"
       tgtlength="100"
       tgtlength_rdm="0.3;1" />
    <inkscape:path-effect
       effect="sketch"
       id="path-effect4053"
       is_visible="true"
       nbiter_approxstrokes="5"
       strokelength="100"
       strokelength_rdm="0.3;1"
       strokeoverlap="0.3"
       strokeoverlap_rdm="0.3;1"
       ends_tolerance="0.1;1"
       parallel_offset="1;1"
       tremble_size="1;1"
       tremble_frequency="1"
       nbtangents="0"
       tgt_places_rdmness="1;1"
       tgtscale="10"
       tgtlength="100"
       tgtlength_rdm="0.3;1" />
    <inkscape:path-effect
       effect="sketch"
       id="path-effect4048"
       is_visible="true"
       nbiter_approxstrokes="2"
       strokelength="100"
       strokelength_rdm="0.3;1"
       strokeoverlap="0.3"
       strokeoverlap_rdm="0.3;1"
       ends_tolerance="0.1;1"
       parallel_offset="1;1"
       tremble_size="1;1"
       tremble_frequency="1"
       nbtangents="0"
       tgt_places_rdmness="1;1"
       tgtscale="10"
       tgtlength="100"
       tgtlength_rdm="0.3;1" />
    <inkscape:path-effect
       effect="sketch"
       id="path-effect4027"
       is_visible="true"
       nbiter_approxstrokes="1"
       strokelength="100"
       strokelength_rdm="0.3;1"
       strokeoverlap="0.3"
       strokeoverlap_rdm="0.3;1"
       ends_tolerance="0.1;1"
       parallel_offset="2;1"
       tremble_size="1;1"
       tremble_frequency="1"
       nbtangents="0"
       tgt_places_rdmness="1;1"
       tgtscale="10"
       tgtlength="100"
       tgtlength_rdm="0.3;1" />
    <inkscape:path-effect
       effect="sketch"
       id="path-effect4025"
       is_visible="true"
       nbiter_approxstrokes="2"
       strokelength="100"
       strokelength_rdm="0.3;1"
       strokeoverlap="0.3"
       strokeoverlap_rdm="0.3;1"
       ends_tolerance="0.1;1"
       parallel_offset="2;1"
       tremble_size="2;1"
       tremble_frequency="1"
       nbtangents="0"
       tgt_places_rdmness="1;1"
       tgtscale="10"
       tgtlength="100"
       tgtlength_rdm="0.3;1" />
    <inkscape:path-effect
       effect="sketch"
       id="path-effect4014"
       is_visible="true"
       nbiter_approxstrokes="5"
       strokelength="100"
       strokelength_rdm="0.3;1"
       strokeoverlap="0.3"
       strokeoverlap_rdm="0.3;1"
       ends_tolerance="0.1;1"
       parallel_offset="5;1"
       tremble_size="5;1"
       tremble_frequency="1"
       nbtangents="5"
       tgt_places_rdmness="1;1"
       tgtscale="10"
       tgtlength="100"
       tgtlength_rdm="0.3;1" />
    <inkscape:path-effect
       effect="sketch"
       id="path-effect3766"
       is_visible="true"
       nbiter_approxstrokes="3"
       strokelength="100"
       strokelength_rdm="0.3;1"
       strokeoverlap="0.3"
       strokeoverlap_rdm="0.3;1"
       ends_tolerance="0.1;1"
       parallel_offset="2;1"
       tremble_size="2;1"
       tremble_frequency="1"
       nbtangents="0"
       tgt_places_rdmness="1;1"
       tgtscale="10"
       tgtlength="100"
       tgtlength_rdm="0.3;1" />
    <inkscape:path-effect
       effect="sketch"
       id="path-effect3750"
       is_visible="true"
       nbiter_approxstrokes="3"
       strokelength="100"
       strokelength_rdm="0.3;1"
       strokeoverlap="0.3"
       strokeoverlap_rdm="0.3;1"
       ends_tolerance="0.1;1"
       parallel_offset="2;1"
       tremble_size="2;1"
       tremble_frequency="1"
       nbtangents="0"
       tgt_places_rdmness="1;1"
       tgtscale="10"
       tgtlength="100"
       tgtlength_rdm="0.3;1" />
    <inkscape:path-effect
       effect="sketch"
       id="path-effect3734"
       is_visible="true"
       nbiter_approxstrokes="3"
       strokelength="100"
       strokelength_rdm="0.3;1"
       strokeoverlap="0.3"
       strokeoverlap_rdm="0.3;1"
       ends_tolerance="0.1;1"
       parallel_offset="2;1"
       tremble_size="2;1"
       tremble_frequency="1"
       nbtangents="0"
       tgt_places_rdmness="1;1"
       tgtscale="10"
       tgtlength="100"
       tgtlength_rdm="0.3;1" />
    <inkscape:path-effect
       tgtlength_rdm="0.3;1"
       tgtlength="100"
       tgtscale="10"
       tgt_places_rdmness="1;1"
       nbtangents="0"
       tremble_frequency="1"
       tremble_size="2;1"
       parallel_offset="2;1"
       ends_tolerance="0.1;1"
       strokeoverlap_rdm="0.3;1"
       strokeoverlap="0.3"
       strokelength_rdm="0.3;1"
       strokelength="100"
       nbiter_approxstrokes="3"
       is_visible="true"
       id="path-effect3730"
       effect="sketch" />
    <inkscape:path-effect
       effect="sketch"
       id="path-effect3724"
       is_visible="true"
       nbiter_approxstrokes="3"
       strokelength="100"
       strokelength_rdm="0.3;1"
       strokeoverlap="0.3"
       strokeoverlap_rdm="0.3;1"
       ends_tolerance="0.1;1"
       parallel_offset="2;1"
       tremble_size="2;1"
       tremble_frequency="1"
       nbtangents="0"
       tgt_places_rdmness="1;1"
       tgtscale="10"
       tgtlength="100"
       tgtlength_rdm="0.3;1" />
    <inkscape:path-effect
       effect="sketch"
       id="path-effect3698"
       is_visible="true"
       nbiter_approxstrokes="3"
       strokelength="100"
       strokelength_rdm="0.3;1"
       strokeoverlap="0.3"
       strokeoverlap_rdm="0.3;1"
       ends_tolerance="0.1;1"
       parallel_offset="2;1"
       tremble_size="2;1"
       tremble_frequency="1"
       nbtangents="0"
       tgt_places_rdmness="1;1"
       tgtscale="10"
       tgtlength="100"
       tgtlength_rdm="0.3;1" />
    <inkscape:path-effect
       effect="sketch"
       id="path-effect3685"
       is_visible="true"
       nbiter_approxstrokes="2"
       strokelength="100"
       strokelength_rdm="0.3;1"
       strokeoverlap="0.3"
       strokeoverlap_rdm="0.3;1"
       ends_tolerance="0.1;1"
       parallel_offset="1;1"
       tremble_size="2;1"
       tremble_frequency="1"
       nbtangents="0"
       tgt_places_rdmness="1;1"
       tgtscale="10"
       tgtlength="100"
       tgtlength_rdm="0.3;1" />
    <inkscape:path-effect
       effect="sketch"
       id="path-effect3633"
       is_visible="true"
       nbiter_approxstrokes="2"
       strokelength="100"
       strokelength_rdm="0.3;1"
       strokeoverlap="0.3"
       strokeoverlap_rdm="0.3;1"
       ends_tolerance="0.1;1"
       parallel_offset="3;1"
       tremble_size="3;1"
       tremble_frequency="1"
       nbtangents="0"
       tgt_places_rdmness="1;1"
       tgtscale="10"
       tgtlength="100"
       tgtlength_rdm="0.3;1" />
    <inkscape:path-effect
       effect="spiro"
       id="path-effect2836"
       is_visible="true" />
    <inkscape:path-effect
       effect="spiro"
       id="path-effect2832"
       is_visible="true" />
    <inkscape:perspective
       sodipodi:type="inkscape:persp3d"
       inkscape:vp_x="-771.58579 : 336.9759 : 1"
       inkscape:vp_y="0 : 1000 : 0"
       inkscape:vp_z="-115.17255 : 341.21854 : 1"
       inkscape:persp3d-origin="-400.95276 : 619.78739 : 1"
       id="perspective10" />
    <inkscape:perspective
       id="perspective2824"
       inkscape:persp3d-origin="0.5 : 0.33333333 : 1"
       inkscape:vp_z="1 : 0.5 : 1"
       inkscape:vp_y="0 : 1000 : 0"
       inkscape:vp_x="0 : 0.5 : 1"
       sodipodi:type="inkscape:persp3d" />
    <inkscape:perspective
       id="perspective3710"
       inkscape:persp3d-origin="0.5 : 0.33333333 : 1"
       inkscape:vp_z="1 : 0.5 : 1"
       inkscape:vp_y="0 : 1000 : 0"
       inkscape:vp_x="0 : 0.5 : 1"
       sodipodi:type="inkscape:persp3d" />
    <inkscape:perspective
       id="perspective3884"
       inkscape:persp3d-origin="0.5 : 0.33333333 : 1"
       inkscape:vp_z="1 : 0.5 : 1"
       inkscape:vp_y="0 : 1000 : 0"
       inkscape:vp_x="0 : 0.5 : 1"
       sodipodi:type="inkscape:persp3d" />
  </defs>
  <sodipodi:namedview
     id="base"
     pagecolor="#ffffff"
     bordercolor="#666666"
     borderopacity="1.0"
     inkscape:pageopacity="0.0"
     inkscape:pageshadow="2"
     inkscape:zoom="1"
     inkscape:cx="360"
     inkscape:cy="200"
     inkscape:document-units="px"
     inkscape:current-layer="layer1"
     showgrid="false"
     inkscape:window-width="1672"
     inkscape:window-height="1023"
     inkscape:window-x="0"
     inkscape:window-y="0"
     inkscape:window-maximized="0"
     showguides="true"
     showborder="false"
     inkscape:guide-bbox="true">
    <sodipodi:guide
       orientation="1,0"
       position="0,0"
       id="guide3899" />
    <sodipodi:guide
       orientation="1,0"
       position="720,0"
       id="guide3901" />
  </sodipodi:namedview>
  <metadata
     id="metadata7">
    <rdf:RDF>
      <cc:Work
         rdf:about="">
        <dc:format>image/svg+xml</dc:format>
        <dc:type
           rdf:resource="http://purl.org/dc/dcmitype/StillImage" />
        <dc:title></dc:title>
      </cc:Work>
    </rdf:RDF>
  </metadata>
  <g
     inkscape:label="Layer 1"
     inkscape:groupmode="layer"
     id="layer1"
     transform="translate(0,-652.36217)">
    <g
       id="g4146"
       transform="translate(11,-6)">
      <path
         inkscape:original-d="m 155.5,1063.8622 0,75"
         inkscape:path-effect="#path-effect4130"
         id="path4128"
         d="m 156.90589,1072.2999 c -0.71477,19.9567 -0.13725,40.1133 0.97169,60.7353 m 3.28645,-64.2509 c -0.0762,21.9145 -0.73669,42.9544 -2.0712,63.4992 m -6.28853,-58.9286 c -0.8084,21.5435 -0.63343,41.3225 -0.39983,60.3227 m 2.0411,-54.5422 c 0.48659,18.32 0.50265,37.5668 0.52845,57.2088 m -0.3337,-68.1068 c -0.70457,23.2423 -1.36281,46.3245 -2.99748,69.4364"
         style="fill:none;stroke:#555753;stroke-width:1px;stroke-linecap:butt;stroke-linejoin:miter;stroke-opacity:1" />
      <path
         sodipodi:nodetypes="cc"
         style="fill:none;stroke:#555753;stroke-width:1px;stroke-linecap:butt;stroke-linejoin:miter;stroke-opacity:1"
         d="m 180.75884,1096.1205 c -0.0492,19.0312 -1.29059,38.8508 -2.8208,58.7466 m -3.48182,-66.7173 c -1.44056,21.2677 -1.91126,43.1514 -1.97443,65.2001 m 5.80449,-67.9308 c -1.86482,20.3514 -2.49991,40.5971 -2.93147,60.3422 m 7.38513,-61.6344 c -0.0175,19.5218 -0.82307,38.5171 -1.56732,57.5969"
         id="path4132"
         inkscape:path-effect="#path-effect4134"
         inkscape:original-d="m 182,1081.3622 -3.5,75" />
    </g>
    <g
       id="g3746"
       inkscape:path-effect="#path-effect3750"
       transform="matrix(0.56508822,0,0,0.56436869,34.219602,345.53294)"
       inkscape:export-filename="/home/jonathan/Programing/Web/shetHappened/images/shetEquation.png"
       inkscape:export-xdpi="90"
       inkscape:export-ydpi="90">
      <path
         transform="translate(0,652.36217)"
         id="path3742"
         d="m 193.9633,81.674643 c -0.252,11.534352 -0.67144,23.180727 -1.18333,34.878577 m 0.32529,-37.051885 c -0.64314,13.538527 -1.13157,27.174385 -1.52247,40.863025 m -0.39133,-41.790104 c -0.71874,12.618926 -1.25324,25.221004 -1.69728,37.770844"
         style="fill:none;stroke:#000000;stroke-width:1.7707628px;stroke-linecap:butt;stroke-linejoin:miter;stroke-opacity:1"
         inkscape:original-d="m 193,72 -2,51" />
      <path
         transform="translate(0,652.36217)"
         id="path3744"
         d="m 174.17378,101.15478 c 11.42909,-0.49649 22.74588,-1.0673 34.02266,-1.661196 M 165.7847,98.58353 c 15.2752,-1.044422 30.913,-2.015593 46.7966,-3.015643 m -41.79431,4.683993 c 14.07414,-0.661806 28.43608,-1.650544 42.9885,-2.876321"
         style="fill:none;stroke:#000000;stroke-width:1.7707628px;stroke-linecap:butt;stroke-linejoin:miter;stroke-opacity:1"
         inkscape:original-d="m 165,100 52,-3" />
    </g>
    <g
       transform="matrix(0,0.56436869,-0.56508822,0,687.0872,662.73713)"
       inkscape:path-effect="#path-effect3750"
       id="g3752"
       inkscape:export-filename="/home/jonathan/Programing/Web/shetHappened/images/shetEquation.png"
       inkscape:export-xdpi="90"
       inkscape:export-ydpi="90">
      <path
         inkscape:original-d="m 193,72 -2,51"
         style="fill:none;stroke:#000000;stroke-width:1.7707628px;stroke-linecap:butt;stroke-linejoin:miter;stroke-opacity:1"
         d="m 193.9633,81.674643 c -0.252,11.534352 -0.67144,23.180727 -1.18333,34.878577 m 0.32529,-37.051885 c -0.64314,13.538527 -1.13157,27.174385 -1.52247,40.863025 m -0.39133,-41.790104 c -0.71874,12.618926 -1.25324,25.221004 -1.69728,37.770844"
         id="path3754"
         transform="translate(0,652.36217)" />
      <path
         inkscape:original-d="m 165,100 52,-3"
         style="fill:none;stroke:#000000;stroke-width:1.7707628px;stroke-linecap:butt;stroke-linejoin:miter;stroke-opacity:1"
         d="m 174.17378,101.15478 c 11.42909,-0.49649 22.74588,-1.0673 34.02266,-1.661196 M 165.7847,98.58353 c 15.2752,-1.044422 30.913,-2.015593 46.7966,-3.015643 m -41.79431,4.683993 c 14.07414,-0.661806 28.43608,-1.650544 42.9885,-2.876321"
         id="path3756"
         transform="translate(0,652.36217)" />
    </g>
    <g
       id="g3762"
       inkscape:path-effect="#path-effect3766"
       transform="matrix(1.0467334,0,0,0.79017559,-86.650914,109.71566)"
       inkscape:export-filename="/home/jonathan/Programing/Web/shetHappened/images/shetEquation.png"
       inkscape:export-xdpi="90"
       inkscape:export-ydpi="90">
      <path
         transform="translate(0,652.36217)"
         id="path3758"
         d="m 435.73884,176.93879 c 4.77321,-0.21939 9.51979,-0.42019 14.24446,-0.60657 m -13.07392,-3.58344 c 6.57659,-0.26552 13.19028,-0.50833 19.83419,-0.73337 m -25.27771,3.31534 c 5.60648,-0.22943 11.24954,-0.46286 16.92098,-0.70319"
         style="fill:none;stroke:#000000;stroke-width:1.09956312px;stroke-linecap:butt;stroke-linejoin:miter;stroke-opacity:1"
         inkscape:original-d="m 428,174 30,-1" />
      <path
         id="path3760"
         d="m 435.17028,846.4597 c 4.30356,-0.21577 8.5907,-0.44201 12.86545,-0.676 m -21.25212,-1.85576 c 8.36022,-0.6294 16.82846,-1.23624 25.38606,-1.83773 m -20.38514,3.48355 c 7.16294,-0.38629 14.40032,-0.85763 21.6994,-1.40196"
         style="fill:none;stroke:#000000;stroke-width:1.09956312px;stroke-linecap:butt;stroke-linejoin:miter;stroke-opacity:1"
         inkscape:original-d="m 426,845.36217 31,-2" />
    </g>
    <rect
       style="fill:#2e3436;stroke:none"
       id="rect3768"
       width="292"
       height="225"
       x="419.00015"
       y="659.69946" />
    <g
       id="g3803"
       transform="matrix(0.95027815,0,0,0.95027815,5.2324641,-18.127071)"
       inkscape:export-filename="/home/jonathan/Programing/Web/shetHappened/images/shetEquation.png"
       inkscape:export-xdpi="90"
       inkscape:export-ydpi="90">
      <g
         style="stroke:#73d216;stroke-width:1.26473546"
         transform="matrix(0.3817207,0,0,0.38123465,-64.727299,520.82635)"
         inkscape:path-effect="#path-effect3633"
         id="g3623">
        <path
           style="fill:none;stroke:#73d216;stroke-width:2.75854588px;stroke-linecap:butt;stroke-linejoin:miter;stroke-opacity:1"
           d="m 205.93457,113.67035 c 10.44179,14.65809 20.28483,29.71037 29.94464,44.83229 8.61661,-0.52663 17.18971,-1.03673 25.76738,-1.56785 m -20.06012,-4.84319 c 23.58213,-1.80852 47.87369,-3.16572 72.42118,-4.43709 m -19.30243,4.44982 c 24.15695,-1.88539 49.376,-3.86054 74.59283,-6.33705 m -13.28957,2.7545 c 32.49337,-1.43842 63.6644,-3.76518 95.89561,-5.25168 m -31.95078,-3.56183 c 15.48317,-1.2689 31.53453,-2.42513 47.96521,-3.62897 -10.81476,-5.28572 -21.39395,-10.60101 -31.83001,-16.02431 m 19.31316,12.79616 C 431.6902,122.72081 409.35979,111.02578 387.57321,98.530671 m 11.6768,9.657629 c -8.63752,-3.84967 -17.10402,-7.72281 -25.43815,-11.61916 -15.33908,0.589081 -30.30699,1.113094 -45.08526,1.573343 m 19.62456,-3.090673 c -23.10514,0.859773 -47.04629,2.444815 -71.40976,4.558596 m 14.17273,0.07519 c -29.71599,1.626963 -60.56394,1.982203 -91.31703,1.885853 0.25881,0.38124 0.51765,0.76236 0.77652,1.14337 m 25.12157,-2.932583 c -8.09564,0.562313 -16.10331,1.064523 -24.03995,1.545403 11.32649,17.18645 23.10502,34.23718 35.0636,51.77475 2.19635,-0.065 4.39468,-0.12458 6.59467,-0.17812 M 205.75127,111.2982 c 9.93564,14.36622 19.36248,28.54255 28.67218,42.64145 10.23724,-0.74956 20.43152,-1.52752 30.66983,-2.30889 m -23.19242,-1.68578 c 30.80632,-1.49595 60.01103,-4.3186 89.68271,-7.33044 m -24.94984,6.25777 c 28.43803,-1.66915 56.34465,-2.24591 85.05295,-1.38924 m -18.62055,-2.99634 c 23.88978,-0.88811 48.15245,-1.95025 71.88153,-2.02935 m -14.77278,-2.59368 c 13.3923,-1.09583 26.62057,-2.02072 39.70968,-2.87904 -12.0532,-5.34816 -24.23721,-10.63374 -36.52937,-15.95185 m 17.46506,9.40346 c -25.32392,-10.92076 -49.64477,-22.18445 -73.52234,-32.849363 -2.91466,0.209463 -5.82389,0.426269 -8.72844,0.651698 m 23.45516,5.374225 c -4.81519,-2.15077 -9.64987,-4.356445 -14.49912,-6.611974 -26.90698,0.959387 -54.18589,0.645863 -81.20191,-0.286787 m 27.4224,-0.527387 c -32.57835,1.857989 -64.93147,3.841318 -96.86101,7.302888 m 27.40442,-5.177473 c -17.97204,0.865573 -35.66554,1.469242 -53.02327,1.897923 5.51651,7.61399 11.1231,15.18104 16.82772,22.71322"
           id="path2830"
           inkscape:path-effect="#path-effect2832"
           inkscape:original-d="M 200.5,103.5 234,154 470,138.5 376.5,96 l -176,7.5 z"
           transform="translate(0,652.36217)" />
        <path
           style="fill:none;stroke:#73d216;stroke-width:2.75854588px;stroke-linecap:butt;stroke-linejoin:miter;stroke-opacity:1"
           d="m 254.91116,162.4786 c -0.53879,4.96279 -1.08127,9.93664 -1.62023,14.91682 0,0 0,1e-5 1e-5,3e-5 1.6e-4,4.9e-4 0.003,0.009 0.008,0.024 0.005,0.0154 0.0127,0.0383 0.0228,0.0682 0.0201,0.0599 0.0502,0.14818 0.0901,0.26309 0.0798,0.22982 0.19921,0.56598 0.35795,0.9933 0.3175,0.85465 0.79249,2.07398 1.42423,3.53666 1.2635,2.92538 3.15378,6.8248 5.66982,10.72208 2.51604,3.89728 5.65773,7.79214 9.42669,10.70187 3.76895,2.90972 8.15987,4.83562 13.21383,4.78316 9.80546,-0.1018 19.94481,-2.46596 30.32606,-5.59879 m -23.40417,5.27477 c 8.19996,-0.69384 16.5092,-2.82992 24.82673,-5.46671 10.05127,-3.18641 20.11402,-7.10568 30.03059,-10.07984 8.71601,-2.61409 16.55116,-5.84501 22.60122,-8.65786 6.05007,-2.81285 10.315,-5.20321 11.87544,-6.10291 m -22.57091,11.15004 c 7.26813,-2.7769 13.55842,-5.55049 18.02867,-7.64237 4.47026,-2.09188 7.11607,-3.5074 7.12815,-3.51392 3e-5,-1e-5 4e-5,-2e-5 4e-5,-2e-5 -0.0885,-10.57834 -0.0537,-20.99316 0.0498,-31.34128 m -122.3436,12.90332 c -0.77547,6.08874 -1.55368,12.13919 -2.33371,18.14462 0,0 0,1e-5 1e-5,2e-5 1.5e-4,4.9e-4 0.003,0.008 0.007,0.0237 0.005,0.0152 0.0119,0.0377 0.0214,0.0671 0.0189,0.059 0.0471,0.14595 0.0847,0.25911 0.0751,0.22631 0.18747,0.55724 0.33724,0.97752 0.29955,0.84056 0.74866,2.03857 1.34813,3.47099 1.19893,2.86484 2.99916,6.66597 5.40768,10.42403 2.40852,3.75806 5.42538,7.47437 9.05858,10.18314 3.6332,2.70876 7.88272,4.41989 12.75704,4.09865 9.75359,-0.64279 19.75829,-3.83752 29.83137,-7.96449 0.068,-0.0279 0.13594,-0.0557 0.20392,-0.0837 m -29.93643,9.94694 c 8.4763,-0.55505 17.20485,-2.73803 26.0554,-5.4313 10.13036,-3.08272 20.42195,-6.83404 30.63952,-9.58622 20.41588,-5.49917 36.46745,-14.03168 36.49764,-14.0478 2e-5,-1e-5 4e-5,-2e-5 4e-5,-2e-5 0.0137,-0.93903 0.0276,-1.87825 0.0415,-2.81769 m -23.86731,7.85895 c 14.72776,-4.63855 24.81196,-9.90646 24.83556,-9.91868 3e-5,-1e-5 4e-5,-2e-5 4e-5,-2e-5 -0.13633,-8.32783 -0.33362,-16.62563 -0.56284,-24.84891"
           id="path2834"
           inkscape:path-effect="#path-effect2836"
           inkscape:original-d="m 261,152.5 -3,23.5 c 0,0 9.5,31.5 29,31.5 19.5,0 40,-9.5 60,-15 20,-5.5 35.5,-14 35.5,-14 L 382,145"
           transform="translate(0,652.36217)"
           sodipodi:nodetypes="ccsscc" />
        <path
           inkscape:original-d="m 332.55606,117.81166 c 0,1.78316 -4.33661,3.2287 -9.6861,3.2287 -5.34948,0 -9.68609,-1.44554 -9.68609,-3.2287 0,-1.78316 4.33661,-3.2287 9.68609,-3.2287 5.34949,0 9.6861,1.44554 9.6861,3.2287 z"
           transform="translate(0,652.36217)"
           style="fill:none;stroke:#73d216;stroke-width:2.75854588;stroke-opacity:1"
           d="m 325.33601,121.76507 c -0.76074,0.0617 -1.55648,0.0944 -2.37557,0.0943 -2.70453,-4.4e-4 -5.15151,-0.35856 -6.92345,-0.939 -0.88597,-0.29021 -1.60315,-0.63605 -2.09963,-1.02056 -0.49647,-0.38452 -0.77205,-0.80778 -0.77652,-1.25209 -0.004,-0.44431 0.26205,-0.86744 0.74599,-1.25135 0.48394,-0.38391 1.18548,-0.72864 2.05281,-1.01659 1.73467,-0.5759 4.13269,-0.92457 6.78144,-0.90662 2.64875,0.018 5.04662,0.39906 6.78111,0.9997 0.86725,0.30032 1.5687,0.65546 2.05255,1.04771 0.48386,0.39224 0.75032,0.82139 0.74578,1.27165 -0.005,0.45026 -0.28019,0.87954 -0.77676,1.27236 -0.49658,0.39282 -1.21391,0.74902 -2.10007,1.0515 -1.77231,0.60495 -4.21987,0.99508 -6.9252,1.03056 -2.70534,0.0355 -5.15632,-0.29049 -6.93255,-0.8465 -0.88811,-0.278 -1.60747,-0.61358 -2.10581,-0.98988 -0.49835,-0.37631 -0.77542,-0.79365 -0.78143,-1.23212 -0.006,-0.43847 0.25891,-0.85569 0.74042,-1.23144 0.48152,-0.37576 1.17987,-0.71034 2.04299,-0.98629 1.72625,-0.55189 4.11162,-0.86929 6.74277,-0.81714 1.47489,0.0292 2.87048,0.17143 4.1149,0.40067 m -1.45421,7.79442 c -0.28316,0.003 -0.56989,0.002 -0.85964,-0.003 -2.65197,-0.0468 -5.05486,-0.44378 -6.79404,-1.05302 -0.86959,-0.30462 -1.57326,-0.66233 -2.05899,-1.05628 -0.48572,-0.39394 -0.75363,-0.82393 -0.75056,-1.27485 0.003,-0.45092 0.27719,-0.8807 0.77151,-1.27369 0.49433,-0.393 1.20874,-0.74897 2.09112,-1.05005 1.76477,-0.60215 4.20131,-0.98431 6.89179,-1.00233 2.69049,-0.018 5.1256,0.33127 6.88874,0.90758 0.88157,0.28815 1.59513,0.63305 2.08873,1.01707 0.49359,0.38402 0.76712,0.80721 0.76958,1.25158 0.002,0.44437 -0.26609,0.86768 -0.75279,1.25222 -0.48671,0.38454 -1.19166,0.73038 -2.06296,1.02047 -1.74261,0.58019 -4.15071,0.93759 -6.81,0.93531 -2.2852,-0.002 -4.38403,-0.26938 -6.03423,-0.71534"
           id="path2838" />
        <path
           inkscape:original-d="m 326.09865,119.74888 c 94.92377,16.1435 107.83857,17.43498 107.83857,25.18386 0,7.74887 -10.33184,58.76233 -14.85202,61.34529"
           style="fill:none;stroke:#73d216;stroke-width:2.75854588px;stroke-linecap:butt;stroke-linejoin:miter;stroke-opacity:1"
           d="m 328.77245,123.44541 c 10.99825,2.04277 20.95569,3.74854 29.88218,5.23918 8.9265,1.49064 16.82558,2.76423 23.78108,3.89576 7.48133,1.21708 13.87311,2.2687 19.32139,3.21749 m -19.08304,-2.34317 c 14.07935,2.60505 24.42806,4.26091 31.92109,5.68862 7.65557,1.45868 12.33502,2.65634 15.09296,3.99448 1.37896,0.66907 2.2789,1.36989 2.83926,2.13552 0.56035,0.76563 0.78173,1.59486 0.80468,2.51835 0.0229,0.9235 -0.099,2.49029 -0.33458,4.52216 -0.23562,2.03186 -0.58486,4.52854 -1.01681,7.31304 -0.73332,4.72714 -1.7034,10.28071 -2.77376,15.82733 m 1.07933,-28.64239 c -0.31909,2.0858 -0.76564,4.65335 -1.30116,7.54246 -1.08411,5.84868 -2.52717,13.02403 -4.06419,20.11319 -1.53701,7.08915 -3.17154,14.08687 -4.69815,19.48484 -0.7633,2.69898 -1.50019,4.99707 -2.18551,6.70455 -0.0863,0.21509 -0.17184,0.42081 -0.25647,0.61679 m -87.84407,-76.75659 c 10.40007,2.06281 19.86653,3.75955 28.42898,5.24888 8.56245,1.48934 16.22205,2.76801 23.0427,3.91868 13.11589,2.21271 23.1221,3.95848 30.65893,5.50579 m -14.31451,-8.92863 c 9.72561,1.76182 17.20215,3.20148 22.95132,4.48327 7.55011,1.68333 12.11848,3.09213 14.80516,4.56638 1.34334,0.73712 2.21554,1.49045 2.75128,2.30254 0.53575,0.8121 0.73494,1.68304 0.73182,2.6554 -0.003,0.97236 -0.17005,2.62339 -0.46953,4.77379 -0.29947,2.1504 -0.73155,4.80019 -1.26452,7.77039 -1.06593,5.94041 -2.53602,13.16308 -4.14656,20.23548 -0.33908,1.48902 -0.68436,2.97135 -1.03336,4.43354 m 2.67986,-20.51227 c -0.92698,5.43864 -2.17658,11.74549 -3.59494,17.95982 -1.61702,7.08469 -3.45206,14.04958 -5.18068,19.41737 -0.86432,2.6839 -1.70074,4.96763 -2.46587,6.664 -0.0494,0.10963 -0.0986,0.21681 -0.14743,0.32148"
           id="path3613"
           transform="translate(0,652.36217)"
           sodipodi:nodetypes="css" />
        <path
           inkscape:original-d="m 326.09865,119.74888 c 94.92377,16.1435 107.83857,17.43498 107.83857,25.18386 0,7.74887 1.29148,60.69955 -3.2287,63.28251"
           sodipodi:nodetypes="css"
           transform="translate(0,652.36217)"
           id="path3615"
           d="m 332.47452,119.30544 c 20.97446,3.45406 37.94189,6.41076 51.44281,8.8566 14.62731,2.64989 25.21413,4.71982 32.80235,6.48298 3.34561,0.77737 6.11017,1.49694 8.38744,2.18746 m -21.52235,-8.60387 c 6.6308,1.21256 11.99165,2.30139 16.35203,3.30621 7.62438,1.757 12.19339,3.25189 14.88262,4.78202 1.34461,0.76507 2.2163,1.54046 2.75125,2.37223 0.53496,0.83177 0.73294,1.72058 0.7279,2.71408 -0.0101,1.98698 0.0415,6.87352 0.0272,13.1727 -0.0142,6.29917 -0.095,14.01641 -0.31748,21.6271 -0.18104,6.19284 -0.45268,12.31396 -0.85587,17.50019 m -5.25635,-17.87427 c -0.0291,2.63744 -0.0651,5.32132 -0.11315,7.97984 -0.13222,7.31859 -0.35192,14.4436 -0.81254,19.89988 -0.0438,0.51888 -0.0898,1.02268 -0.13819,1.51014 m -99.03557,-88.47115 c 9.97428,1.44749 19.11729,2.92292 27.40085,4.31548 8.28357,1.39255 15.7106,2.70541 22.32432,3.90669 8.0515,1.46242 14.89899,2.76093 20.69087,3.91627 m -18.83399,2.87767 c 0.10842,0.0178 0.21659,0.0355 0.32452,0.0532 7.40355,1.21448 13.64228,2.28084 18.95329,3.24076 5.31102,0.95992 9.69251,1.81369 13.33021,2.60506 7.2754,1.58274 11.59012,2.9181 14.11362,4.3435 1.26176,0.7127 2.07118,1.4475 2.55143,2.24325 0.48025,0.79574 0.62968,1.65209 0.56836,2.60742 -0.12265,1.91065 -0.34953,6.60725 -0.77107,12.59782 -0.42155,5.99056 -1.04475,13.27251 -1.86943,20.3665 -0.36578,3.14644 -0.76946,6.25632 -1.20419,9.20313 m 8.05907,-25.22749 c 0.16171,5.76416 0.27465,12.47216 0.24287,19.03317 -0.0354,7.30351 -0.24578,14.42685 -0.72457,19.88742 -0.2394,2.73028 -0.5459,5.04494 -0.9328,6.7581 -0.058,0.25687 -0.11783,0.50022 -0.17951,0.72941"
           style="fill:none;stroke:#73d216;stroke-width:2.75854588px;stroke-linecap:butt;stroke-linejoin:miter;stroke-opacity:1" />
        <path
           inkscape:original-d="m 326.09865,119.74888 c 94.92377,16.1435 107.83857,17.43498 107.83857,25.18386 0,7.74887 10.97758,47.13901 6.4574,49.72197"
           style="fill:none;stroke:#73d216;stroke-width:2.75854588px;stroke-linecap:butt;stroke-linejoin:miter;stroke-opacity:1"
           d="m 325.6251,114.62613 c 23.30887,4.10687 42.07677,7.62778 56.92149,10.62507 6.23448,1.25879 11.78136,2.42511 16.70232,3.50741 m -18.84582,5.2444 c 1.02967,0.19297 2.04274,0.38127 3.03919,0.56523 7.14138,1.31837 13.42234,2.416 18.87502,3.38345 5.45267,0.96746 10.07923,1.80372 13.96651,2.57357 7.77456,1.5397 12.57979,2.81974 15.41643,4.2112 1.41832,0.69574 2.34859,1.41734 2.93574,2.20141 0.58714,0.78407 0.83252,1.62994 0.88347,2.57301 0.0509,0.94307 0.3009,2.36676 0.69624,4.13831 0.39533,1.77155 0.93611,3.89094 1.56647,6.22647 1.26073,4.67108 2.88343,10.20489 4.38016,15.56857 0.29458,1.05565 0.58412,2.10479 0.86471,3.13965 m -8.15888,-27.84819 c 0.24463,1.53415 0.5609,3.28355 0.92646,5.18477 0.91187,4.74252 2.13658,10.43713 3.27452,16.03445 1.13794,5.59733 2.18633,11.09354 2.67637,15.35992 0.24503,2.13319 0.34956,3.95799 0.25407,5.3325 -0.0478,0.68725 -0.14551,1.26193 -0.30004,1.70699 -0.0577,0.16629 -0.12339,0.3145 -0.19724,0.44379 M 336.33512,125.00892 c 20.80505,3.53276 37.58989,6.34456 50.9638,8.65188 9.38914,1.61985 17.10796,2.99317 23.43206,4.20712 m -18.15703,-5.7749 c 11.06999,2.24262 19.54266,3.8721 25.89871,5.29209 7.48128,1.67137 12.04755,3.03641 14.72923,4.48427 1.34085,0.72394 2.21216,1.46653 2.74733,2.26901 0.53517,0.80249 0.73416,1.66463 0.73107,2.62654 -0.003,0.9619 0.1639,2.41435 0.4497,4.2234 0.2858,1.80905 0.69045,3.97465 1.16175,6.36393 0.94262,4.77855 2.15143,10.45125 3.20326,15.96866 0.0347,0.18211 0.0693,0.36404 0.10363,0.54576 m -5.46521,-16.81089 c 0.81921,4.7004 1.90819,10.2374 2.91238,15.63761 1.03383,5.55959 1.9744,10.97317 2.37636,15.15946 0.18003,1.87489 0.2516,3.50346 0.1744,4.78844"
           id="path3617"
           transform="translate(0,652.36217)"
           sodipodi:nodetypes="css" />
        <path
           inkscape:original-d="m 326.09865,119.74888 c 94.92377,16.1435 107.83857,17.43498 107.83857,25.18386 0,7.74887 -5.16592,70.38565 -9.6861,72.96861"
           sodipodi:nodetypes="css"
           transform="translate(0,652.36217)"
           id="path3619"
           d="m 327.13525,124.3693 c 11.40766,2.16883 21.72307,3.8722 31.0031,5.31451 9.28003,1.44231 17.5254,2.61996 24.82033,3.64789 14.6998,2.07135 25.5294,3.55022 33.38057,4.89299 m -27.17908,-5.56682 c 11.30125,1.97396 19.83889,3.58797 26.2514,5.01376 7.58081,1.68556 12.19089,3.10851 14.90408,4.59134 1.35659,0.74142 2.23927,1.49829 2.78437,2.31358 0.5451,0.81528 0.75278,1.68916 0.75969,2.66503 0.007,0.97587 -0.0607,2.81594 -0.19137,5.29583 -0.13071,2.4799 -0.32447,5.59973 -0.56964,9.13523 -0.49035,7.07102 -1.18463,15.80662 -2.00085,24.39867 -0.3738,3.93482 -0.7735,7.83917 -1.1933,11.53739 m -0.62638,-29.00281 c -0.35802,4.87032 -0.78563,10.11545 -1.26216,15.31591 -0.77229,8.42804 -1.66763,16.73844 -2.63022,23.10305 -0.4813,3.18231 -0.98077,5.87781 -1.49751,7.85845 -0.25837,0.99032 -0.52112,1.80194 -0.78793,2.40654 -0.12144,0.2752 -0.24372,0.50751 -0.36671,0.69427 M 327.69107,120.0669 c 22.90041,3.77865 40.15189,6.74078 53.5016,9.11101 13.68461,2.4297 23.25386,4.25311 30.07151,5.8271 3.92289,0.90568 6.92681,1.72918 9.22352,2.5365 m -22.34026,-4.32554 c 7.13207,1.15171 12.80292,2.15099 17.35907,3.06613 7.55926,1.51834 12.05491,2.80951 14.69668,4.20507 1.32088,0.69779 2.17392,1.42128 2.69227,2.20705 0.51834,0.78576 0.70129,1.63321 0.67849,2.57813 -0.0228,0.94492 -0.14754,2.7262 -0.36757,5.11963 -0.22002,2.39343 -0.53599,5.39884 -0.93878,8.78988 -0.80559,6.78207 -1.96755,15.1007 -3.30971,23.17213 -0.86619,5.20911 -1.8034,10.31627 -2.74942,14.87058 m 5.50185,-27.74316 c -0.36616,3.32307 -0.758,6.75668 -1.16912,10.1786 -1.00522,8.36688 -2.12619,16.66738 -3.28419,23.03964 -0.57901,3.18612 -1.16717,5.88926 -1.75283,7.87665 -0.29284,0.9937 -0.58501,1.80849 -0.87502,2.41567 -0.145,0.30359 -0.28946,0.55528 -0.4332,0.75153 -0.0902,0.12318 -0.18016,0.22452 -0.26979,0.30316"
           style="fill:none;stroke:#73d216;stroke-width:2.75854588px;stroke-linecap:butt;stroke-linejoin:miter;stroke-opacity:1" />
        <path
           inkscape:original-d="m 326.09865,119.74888 c 94.92377,16.1435 107.83857,17.43498 107.83857,25.18386 0,7.74887 5.16592,64.57399 0.64574,67.15695"
           style="fill:none;stroke:#73d216;stroke-width:2.75854588px;stroke-linecap:butt;stroke-linejoin:miter;stroke-opacity:1"
           d="m 333.4018,119.71563 c 11.15325,2.03375 21.12237,3.63379 30.05428,4.9786 8.9319,1.34481 16.82545,2.4319 23.80505,3.37029 13.10089,1.76137 22.98152,3.01034 30.39468,4.13793 m -26.48478,-5.22178 c 9.79318,1.49729 17.46476,3.01164 23.35043,4.39714 7.52496,1.77139 12.14249,3.34491 14.85749,4.92231 1.35749,0.7887 2.24197,1.58348 2.78888,2.43264 0.54691,0.84917 0.75657,1.75395 0.76609,2.76647 0.01,1.01252 0.10786,2.828 0.26731,5.24627 0.15945,2.41827 0.38028,5.43991 0.63263,8.86255 0.50471,6.84527 1.13792,15.30419 1.619,23.6552 0.0605,1.04947 0.11849,2.09707 0.17351,3.13924 m -5.85075,-15.45955 c 0.34199,5.33114 0.7224,11.2405 1.04739,17.05415 0.43538,7.7884 0.77343,15.40615 0.73291,21.24112 -0.003,0.43269 -0.008,0.85557 -0.0154,1.26799 M 328.60219,119.37095 c 21.81896,3.58402 38.87932,6.37326 52.34077,8.61135 14.29969,2.37747 24.52894,4.14621 31.85908,5.67823 4.38117,0.91568 7.72355,1.74679 10.25907,2.56744 M 403.187,134.36288 c 4.77105,0.97696 8.85431,1.85488 12.32167,2.66998 7.46514,1.7549 12.06484,3.21714 14.76846,4.72685 1.35181,0.75485 2.23293,1.52166 2.77715,2.34565 0.54423,0.82399 0.75184,1.70557 0.7594,2.69034 0.008,0.98477 0.10261,2.74936 0.26041,5.09134 0.1578,2.34198 0.3787,5.26142 0.63592,8.55705 0.51445,6.59126 1.17905,14.6904 1.71775,22.67333 0.25431,3.76862 0.47938,7.51073 0.64359,11.05021 m -3.23842,-23.02818 c 0.12712,2.92404 0.26309,5.94032 0.39433,8.95076 0.33277,7.63307 0.64289,15.23526 0.60428,21.10073 -0.006,0.87339 -0.0194,1.70814 -0.0422,2.49852"
           id="path3621"
           transform="translate(0,652.36217)"
           sodipodi:nodetypes="css" />
      </g>
      <text
         id="text3791"
         y="886.36218"
         x="4.0893536"
         style="font-size:20px;font-style:normal;font-variant:normal;font-weight:normal;font-stretch:normal;fill:#4e9a06;fill-opacity:1;stroke:none;font-family:Heathchote;-inkscape-font-specification:Heathchote"
         xml:space="preserve"><tspan
           y="886.36218"
           x="4.0893536"
           id="tspan3793"
           sodipodi:role="line">Six Students</tspan></text>
    </g>
    <g
       id="g3816"
       transform="matrix(0.95027815,0,0,0.95027815,5.4216518,-18.127071)"
       inkscape:export-filename="/home/jonathan/Programing/Web/shetHappened/images/shetEquation.png"
       inkscape:export-xdpi="90"
       inkscape:export-ydpi="90">
      <g
         style="stroke:#73d216;stroke-width:1.26473546;stroke-miterlimit:4;stroke-dasharray:none"
         transform="matrix(0.74274144,0,0,0.83152032,-10.56207,147.18297)"
         inkscape:path-effect="#path-effect3685"
         id="g3679">
        <path
           inkscape:original-d="m 295,764.64831 -46.4375,46.4375 92.875,0 L 295,764.64831 z"
           style="fill:none;stroke:#73d216;stroke-width:1.33904135;stroke-linecap:round;stroke-linejoin:round;stroke-miterlimit:4;stroke-opacity:1;stroke-dasharray:none;stroke-dashoffset:0"
           d="m 291.3014,771.53445 c -13.5936,13.67672 -27.66474,27.66785 -41.85094,41.69023 7.00554,0.0291 13.99618,0.0622 20.98882,0.0862 m -20.26079,-2.52201 c 23.72879,-0.16063 47.93053,-0.0204 72.3029,0.17712 m -17.35992,1.05725 c 11.36315,-0.0795 22.87954,-0.17196 34.47773,-0.305 -9.35993,-9.55261 -18.61176,-19.15884 -27.86402,-28.86067 m 13.36206,12.48169 c -9.75277,-9.82133 -19.68147,-19.76084 -29.64451,-29.71581 -12.33856,12.46865 -24.72976,24.9136 -36.90461,37.53003 m 28.44338,-32.71564 c -13.48566,13.07567 -26.43785,26.25712 -39.06702,39.36576 9.82219,-0.0768 19.72731,-0.17231 29.68799,-0.30974 m -22.42661,2.52175 c 25.20207,0.28684 51.32483,-0.46946 77.81015,-1.75913 m -20.37996,0.48558 c 8.87693,0.001 17.86002,-0.0118 26.92613,-0.0394 -11.10389,-11.30159 -21.94722,-22.64842 -32.65879,-34.03955 m 13.46523,11.45868 c -8.07706,-8.21594 -16.2899,-16.31408 -24.60535,-24.31019 -8.53188,8.56284 -17.17179,17.23311 -25.88391,25.99377"
           id="rect3655" />
        <path
           sodipodi:nodetypes="ccccc"
           inkscape:original-d="m 258.23044,811.09662 73.53911,0 0,40.44722 -73.53911,0 0,-40.44722 z"
           style="fill:none;stroke:#73d216;stroke-width:1.33904135;stroke-linecap:round;stroke-linejoin:round;stroke-miterlimit:4;stroke-opacity:1;stroke-dasharray:none;stroke-dashoffset:0"
           d="m 267.52752,811.99513 c 21.92118,0.16252 43.45402,-0.11125 64.90044,-0.61948 -0.10035,8.81708 -0.21568,17.59354 -0.32421,26.34392 m 0.2751,-26.4639 c -0.10308,13.18369 -0.0529,26.26267 0.10287,39.34616 -17.17133,0.18582 -34.15238,0.37977 -51.05864,0.8462 m 23.69961,0.93181 c -15.10608,0.089 -30.48882,0.0748 -45.95588,0.0126 -0.0449,-12.03492 -0.14085,-24.0989 -0.19728,-36.16594 m -1.96546,18.34888 c 0.15721,-8.16437 0.23373,-16.39558 0.25821,-24.67787 21.82691,-0.0834 43.29175,-0.52215 64.92027,-1.02724 m -64.43623,1.23423 c 24.32929,0.09 48.3965,0.71879 72.7671,2.03095 0.0658,4.1119 0.13961,8.24188 0.22389,12.39056 m -7.88473,-14.36666 c 3.04216,0.0603 6.08827,0.11883 9.13713,0.17702 -0.17721,13.73637 -0.30223,27.46706 -0.47571,41.32053 -8.03542,0.21835 -16.08762,0.4792 -24.1771,0.80875 m 16.92441,-0.82033 c -21.9328,-0.24036 -44.16108,-0.1728 -66.6112,-0.10633 -0.0923,-4.34373 -0.19337,-8.6875 -0.30255,-13.03372 m 5.80403,13.08559 c -1.90048,0.0212 -3.7978,0.0414 -5.6921,0.0607 -0.0464,-13.34468 0.0616,-26.73392 0.2802,-40.09384 15.43592,0.138 31.01213,0.31321 46.66581,0.63129"
           id="rect3660" />
        <path
           inkscape:original-d="m 300.52039,825.38092 16.26345,0 0,26.16295 -16.26345,0 0,-26.16295 z"
           style="fill:none;stroke:#73d216;stroke-width:1.33904135;stroke-linecap:round;stroke-linejoin:round;stroke-miterlimit:4;stroke-opacity:1;stroke-dasharray:none;stroke-dashoffset:0"
           d="m 306.62994,826.62319 c 3.75753,0.0308 7.50876,0.044 11.25482,0.0405 0.0413,8.71287 0.0542,17.33499 0.0528,25.88091 -5.42197,-0.10882 -10.84944,-0.24709 -16.27901,-0.4113 -0.0135,-8.98514 -0.0325,-18.03742 -0.0428,-27.14228 5.41477,-0.23862 10.8329,-0.49756 16.2578,-0.77332 2.9e-4,0.40074 6.2e-4,0.80138 9.9e-4,1.20192 M 308.583,824.4982 c 2.82048,0.0268 5.64207,0.0543 8.46486,0.083 0.0181,8.80974 0.0477,17.63099 0.0913,26.48088 -5.39403,0.0801 -10.78264,0.17135 -16.16523,0.27775 0.062,-8.54982 0.13967,-17.06031 0.23541,-25.51433 5.48066,0.16595 10.96831,0.35372 16.46357,0.56744 0.0214,1.62987 0.0435,3.26192 0.0662,4.89623"
           id="rect3662" />
        <path
           inkscape:original-d="m 270.11478,824.0672 16.26345,0 0,16.26346 -16.26345,0 0,-16.26346 z"
           style="fill:none;stroke:#73d216;stroke-width:1.33904135;stroke-linecap:round;stroke-linejoin:round;stroke-miterlimit:4;stroke-opacity:1;stroke-dasharray:none;stroke-dashoffset:0"
           d="m 277.45084,823.0438 c 2.61433,0.009 5.23254,0.0151 7.85475,0.0173 0.0282,5.42581 0.0737,10.83663 0.13752,16.23403 -5.35737,-0.0238 -10.69645,-0.061 -16.01622,-0.11 0.10139,-5.4702 0.2221,-10.95226 0.36316,-16.4446 5.56221,-0.0712 11.14477,-0.15267 16.74873,-0.24286 0.10462,3.05099 0.21625,6.09912 0.33507,9.1447 m -9.45415,-7.31748 c 2.14256,-0.0188 4.28469,-0.0364 6.42674,-0.0529 0.0724,5.37887 0.14426,10.76466 0.22149,16.15353 -5.34392,-0.0323 -10.68249,-0.0615 -16.00983,-0.0914 0.0938,-5.45111 0.19887,-10.90298 0.32103,-16.35945 5.54331,-0.0353 11.10374,-0.0752 16.68715,-0.12359 0.16226,5.3728 0.34751,10.73715 0.56163,16.08922 -0.79962,-0.0106 -1.59856,-0.0215 -2.39679,-0.0327"
           id="rect3664" />
      </g>
      <text
         xml:space="preserve"
         style="font-size:20px;font-style:normal;font-variant:normal;font-weight:normal;font-stretch:normal;fill:#4e9a06;fill-opacity:1;stroke:none;font-family:Heathchote;-inkscape-font-specification:Heathchote"
         x="164.42879"
         y="886.36218"
         id="text3795"><tspan
           sodipodi:role="line"
           id="tspan3797"
           x="164.42879"
           y="886.36218">One House</tspan></text>
    </g>
    <g
       id="g3825"
       transform="matrix(0.95027815,0,0,0.95027815,9.160037,-18.127071)"
       inkscape:export-filename="/home/jonathan/Programing/Web/shetHappened/images/shetEquation.png"
       inkscape:export-xdpi="90"
       inkscape:export-ydpi="90">
      <g
         transform="matrix(0.62397132,0,0,0.62317682,66.857016,301.76864)"
         id="g3736">
        <path
           style="fill:none;stroke:#3465a4;stroke-width:1.68756795;stroke-linecap:round;stroke-linejoin:round;stroke-miterlimit:4;stroke-opacity:1;stroke-dasharray:none;stroke-dashoffset:0"
           d="m 398.65367,830.15874 c -5.16966,0.68534 -9.82117,2.29779 -13.48583,4.54733 -2.55936,1.57105 -4.63736,3.45287 -6.07608,5.54778 -1.43873,2.09491 -2.23798,4.40282 -2.24353,6.82786 -0.002,0.89318 0.10468,1.77759 0.31035,2.63555 -3.33177,1.53352 -5.43908,3.72139 -5.45682,6.16072 -0.008,1.16184 0.45388,2.26908 1.2947,3.27727 0.84081,1.0082 2.0601,1.91737 3.56668,2.68281 3.01318,1.53088 7.17501,2.48725 11.76516,2.50685 2.39183,0.0102 4.66015,-0.25277 6.71253,-0.70328 3.05616,0.72587 6.36713,1.15053 9.82,1.16304 0.36387,0.001 0.72522,-0.0133 1.08574,-0.0205 0.13027,0.1215 0.26511,0.24157 0.4044,0.36016 m -19.59872,-4.8119 c 0.28108,0.005 0.56407,0.007 0.84878,0.005 2.40495,-0.0155 4.69205,-0.30019 6.76566,-0.76853 3.08783,0.69925 6.44171,1.10103 9.9482,1.09713 0.36953,-4.1e-4 0.73658,-0.0167 1.10288,-0.0255 3.59982,3.26524 10.58801,5.49539 18.6669,5.52636 4.39147,0.0168 8.48144,-0.61909 11.88886,-1.72316 3.40742,-1.10407 6.13159,-2.67661 7.79522,-4.53085 3.33874,-0.73573 6.17521,-1.91726 8.18336,-3.39332 1.01014,-0.74249 1.81072,-1.5595 2.36132,-2.43125 m -15.37956,10.32929 c 0.95432,-0.66051 1.76449,-1.37842 2.4051,-2.14132 3.23405,-0.78378 5.98627,-2.01092 7.9275,-3.52634 1.94123,-1.51543 3.07136,-3.31834 3.06165,-5.25968 -0.008,-1.57324 -0.76533,-3.05447 -2.10003,-4.36815 -1.3347,-1.31368 -3.2462,-2.45959 -5.55924,-3.3594 2.57767,-1.78031 4.12223,-3.97538 4.13186,-6.33857 0.006,-1.47396 -0.57888,-2.87904 -1.63953,-4.16265 -1.06065,-1.2836 -2.59701,-2.4456 -4.49457,-3.43096 -3.79513,-1.97072 -9.03402,-3.2348 -14.8128,-3.34503 -3.82394,-0.0729 -7.40045,0.36485 -10.48176,1.19467 -0.20665,-0.0844 -0.41508,-0.16728 -0.62523,-0.2485 m 18.73554,0.25431 c -1.65269,-0.19245 -3.38768,-0.28491 -5.17808,-0.26406 -3.805,0.0443 -7.37797,0.59133 -10.46175,1.52065 -4.29492,-1.61099 -9.36888,-2.51733 -14.81401,-2.48952 1.8e-4,1.6e-4 3.6e-4,3.3e-4 5.4e-4,5e-4 -7.83173,0.0399 -14.94212,2.03208 -20.08515,5.23687 -2.57151,1.60239 -4.65163,3.50758 -6.08645,5.62198 -1.43482,2.11439 -2.2245,4.43785 -2.21447,6.87796 0.004,0.89872 0.11692,1.78847 0.32983,2.65164 -3.30174,1.5551 -5.37718,3.75673 -5.36073,6.20994 0.008,1.16845 0.48716,2.28217 1.3497,3.29823 0.86253,1.01606 2.10825,1.93441 3.64815,2.71112 2.01109,1.01436 4.5239,1.78708 7.33994,2.21969 m 8.8114,-37.03695 c -4.16522,0.83834 -7.87204,2.24948 -10.88934,4.08003 -2.58229,1.56665 -4.65977,3.44056 -6.08543,5.5258 -1.42566,2.08523 -2.19995,4.38185 -2.16852,6.79303 0.0116,0.88806 0.13338,1.76711 0.35554,2.61943 -3.26344,1.51017 -5.30275,3.67775 -5.24983,6.09649 0.0252,1.15203 0.52217,2.24935 1.40639,3.24533 0.88422,0.99597 2.15558,1.89068 3.72609,2.63865 3.14102,1.49596 7.47926,2.40523 12.29357,2.36579 2.50863,-0.0205 4.89463,-0.31442 7.06004,-0.7946 3.22479,0.68159 6.72393,1.05683 10.38194,1.01496 0.3855,-0.004 0.76841,-0.0247 1.15054,-0.0377 1.73319,1.46012 4.18407,2.69745 7.13582,3.59831 m -20.63848,-1.76029 c 0.88425,-0.10838 1.74119,-0.25365 2.56465,-0.43011 3.06819,0.73927 6.40759,1.16233 9.9064,1.1562 0.36872,-6.5e-4 0.73505,-0.0174 1.1007,-0.0269 3.59124,3.25541 10.58202,5.42259 18.70297,5.25677 4.41433,-0.0901 8.53504,-0.85514 11.97442,-2.08747 3.43937,-1.23233 6.19617,-2.93035 7.88862,-4.89355 3.37794,-0.88395 6.25361,-2.20966 8.29623,-3.81084 2.04262,-1.60119 3.24924,-3.47387 3.31663,-5.48801 0.0546,-1.63224 -0.64261,-3.17217 -1.90422,-4.56004 -0.43903,-0.48297 -0.94658,-0.9473 -1.51518,-1.3899 m -6.0755,14.5114 c 1.43153,-0.6052 2.68565,-1.31503 3.71338,-2.10653 1.9434,-1.49673 3.07678,-3.28534 3.07138,-5.21203 -0.004,-1.56137 -0.75777,-3.03103 -2.08616,-4.33033 -1.3284,-1.29929 -3.23133,-2.42824 -5.53192,-3.30807 2.59334,-1.75518 4.15291,-3.93056 4.17928,-6.27346 0.0165,-1.4613 -0.5575,-2.85385 -1.60407,-4.1223 -1.04658,-1.26844 -2.56574,-2.41277 -4.44135,-3.37704 -3.75121,-1.92854 -8.92697,-3.13695 -14.61487,-3.17458 -3.76379,-0.0249 -7.27557,0.46245 -10.29296,1.34026 -2.43602,-0.97718 -5.12177,-1.71805 -7.97756,-2.17813 m 18.26223,-0.81933 c -2.89018,0.16085 -5.60652,0.6245 -8.02685,1.32958 -4.33027,-1.64503 -9.45041,-2.56115 -14.96049,-2.51046 -2.1e-4,3e-4 -4.3e-4,6.1e-4 -6.4e-4,9.2e-4 -7.92539,0.0733 -15.15284,2.15725 -20.41835,5.46019 -2.63275,1.65147 -4.77488,3.60744 -6.2716,5.77197 -1.49672,2.16453 -2.34766,4.53722 -2.40606,7.03098 -0.0215,0.91848 0.0661,1.82815 0.25277,2.7115 -2.792,1.34155 -4.74874,3.10503 -5.4016,5.07674 m 24.56865,-23.82125 c -4.43593,0.8885 -8.41985,2.41906 -11.64073,4.41517 -2.56688,1.5908 -4.64908,3.47742 -6.09026,5.56916 -1.44118,2.09173 -2.24119,4.38886 -2.2464,6.79613 -0.002,0.88662 0.10511,1.76362 0.31121,2.6133 -3.32997,1.49926 -5.43402,3.65124 -5.44826,6.05309 -0.007,1.14399 0.45734,2.23277 1.30046,3.21774 0.84311,0.98496 2.06522,1.86618 3.57532,2.59722 3.0202,1.46209 7.19196,2.32313 11.79378,2.22236 2.39791,-0.0525 4.6721,-0.37846 6.72982,-0.88917 3.06411,0.63605 6.38329,0.9611 9.84371,0.86638 0.36468,-0.01 0.7268,-0.0358 1.08809,-0.0544 2.6924,2.38994 7.32458,4.13584 12.87542,4.71696 m -22.93468,-6.67364 c 0.0349,-0.007 0.0698,-0.014 0.10459,-0.0211 3.07499,0.77088 6.41676,1.23702 9.91248,1.28879 0.3684,0.005 0.73434,-0.005 1.09955,-0.008 3.58542,3.33935 10.55674,5.6494 18.62713,5.73658 4.38685,0.0474 8.47533,-0.56741 11.88307,-1.65409 3.40775,-1.08669 6.13398,-2.64572 7.80001,-4.48821 3.34201,-0.71974 6.18302,-1.88607 8.19566,-3.34789 2.01264,-1.46182 3.19506,-3.22068 3.23728,-5.1151 0.0342,-1.53521 -0.68327,-2.97813 -1.97042,-4.24187 -1.28715,-1.26373 -3.14448,-2.34863 -5.39819,-3.17233 2.65228,-1.68459 4.2502,-3.7997 4.31197,-6.07828 0.0385,-1.42118 -0.51532,-2.77298 -1.54036,-3.99066 -0.0362,-0.043 -0.073,-0.0859 -0.1104,-0.12855 m 3.26636,19.41767 c 0.0618,-0.29512 0.0962,-0.59435 0.10196,-0.89703 0.0296,-1.55102 -0.69555,-3.01114 -1.99742,-4.29956 -1.30186,-1.28842 -3.18138,-2.40545 -5.46938,-3.27305 2.60916,-1.7398 4.16434,-3.90515 4.17931,-6.23862 0.009,-1.45543 -0.57487,-2.84256 -1.63825,-4.10504 -1.06338,-1.26249 -2.60618,-2.4004 -4.51647,-3.35793 -3.82058,-1.91504 -9.11268,-3.10908 -14.97362,-3.13227 -3.8783,-0.0154 -7.51342,0.48057 -10.64875,1.36635 -4.36873,-1.6733 -9.5145,-2.6427 -15.02201,-2.67765 -2e-4,-2.2e-4 -4e-4,-4.4e-4 -6e-4,-6.5e-4 -3.65576,-0.0232 -7.15048,0.37272 -10.36222,1.11472"
           id="path3687"
           inkscape:path-effect="#path-effect3698"
           inkscape:original-d="m 403.93657,826.54358 c -15.74821,0 -28.51503,7.8706 -28.51503,17.57947 0,0.89397 0.10936,1.77883 0.31819,2.63692 -3.31865,1.53406 -5.40929,3.71805 -5.40929,6.15282 0,4.63868 7.53943,8.39908 16.83978,8.39908 2.42311,0 4.72261,-0.27294 6.80445,-0.73248 3.10011,0.71239 6.45909,1.12313 9.9619,1.12313 0.36914,0 0.73571,-0.0159 1.10144,-0.0244 3.59226,3.26915 10.55147,5.49358 18.55313,5.49358 8.69899,0 16.1626,-2.62865 19.40981,-6.37256 6.56858,-1.51965 11.13677,-4.81857 11.13677,-8.66765 0,-3.11925 -3.00628,-5.87042 -7.63664,-7.61777 2.57498,-1.74745 4.11204,-3.91555 4.11204,-6.25048 0,-5.82532 -9.46812,-10.54768 -21.14764,-10.54768 -3.86428,0 -7.48099,0.51332 -10.59829,1.41612 -4.34291,-1.64895 -9.45589,-2.58809 -14.93062,-2.58809 z" />
        <path
           style="fill:none;stroke:#3465a4;stroke-width:1.68756807px;stroke-linecap:butt;stroke-linejoin:miter;stroke-opacity:1"
           d="m 391.66372,832.29945 c 6.56374,5.84378 12.69729,9.79156 18.40873,12.39011 7.07006,3.21668 13.48756,4.36988 19.15079,4.57811 5.66323,0.20823 10.56894,-0.5264 14.59167,-1.06681 0.0334,-0.004 0.0668,-0.009 0.10009,-0.0134 m -51.58864,-18.698 c 5.81866,5.18716 11.41862,8.76535 16.70026,11.18551 7.07111,3.24014 13.57398,4.40616 19.33833,4.62662 5.76436,0.22047 10.79251,-0.50317 14.92555,-1.0329 2.06651,-0.26487 3.90916,-0.48127 5.50855,-0.50659 0.89554,-0.0142 1.71482,0.0316 2.45478,0.16238 M 387.7845,829.65089 c 6.63165,6.45019 13.03605,10.67274 19.03086,13.37268 7.0373,3.16946 13.51709,4.24098 19.25842,4.36076 5.74132,0.11978 10.74712,-0.71261 14.85897,-1.3409 0.58702,-0.0897 1.15583,-0.17522 1.70598,-0.25318"
           id="path3700"
           sodipodi:nodetypes="cs"
           inkscape:path-effect="#path-effect3730"
           inkscape:original-d="M 385.81802,824.54607 C 418.28073,858.88061 443.39538,841.3204 452,845.25318" />
        <path
           inkscape:original-d="m 395.81802,837.54607 c 15.24406,3.95137 21.62749,-12.09742 55.18198,2.70711"
           inkscape:path-effect="#path-effect3724"
           sodipodi:nodetypes="cs"
           id="path3726"
           d="m 403.50373,841.29613 c 1.33362,-0.11123 2.63237,-0.3384 3.93084,-0.63437 3.31503,-0.7556 6.62881,-1.95991 10.50343,-2.81879 3.87462,-0.85888 8.31092,-1.37265 13.85825,-0.74087 3.46086,0.39415 7.3537,1.23446 11.80704,2.71715 m -38.94112,-2.8698 c 0.63994,-0.10417 1.27632,-0.23171 1.91337,-0.37662 3.2434,-0.73779 6.50368,-1.92636 10.34627,-2.77043 3.84258,-0.84406 8.26652,-1.34408 13.84972,-0.69836 5.24501,0.60661 11.51273,2.22438 19.30555,5.52889 m -50.84586,1.06014 c 1.79356,-0.0149 3.50893,-0.28061 5.22966,-0.67692 3.2216,-0.742 6.46193,-1.94156 10.28456,-2.80878 3.82262,-0.86722 8.22687,-1.40112 13.78722,-0.82168 3.85429,0.40165 8.26455,1.33825 13.42756,3.06165"
           style="fill:none;stroke:#3465a4;stroke-width:1.68756807px;stroke-linecap:butt;stroke-linejoin:miter;stroke-opacity:1" />
        <path
           inkscape:original-d="m 440.2203,865.24723 c -61.73677,-19.71121 -48.85307,-36.65026 -65.18198,-7.70711"
           inkscape:path-effect="#path-effect3734"
           sodipodi:nodetypes="cs"
           id="path3732"
           d="m 435.24656,866.35255 c -11.9605,-4.36044 -20.86559,-8.36692 -27.53267,-11.73613 -3.87409,-1.95777 -6.99921,-3.69561 -9.56644,-5.13664 -2.56723,-1.44102 -4.577,-2.58492 -6.22852,-3.3497 -1.65151,-0.76477 -2.94467,-1.1504 -4.08445,-1.07217 -0.56989,0.0391 -1.10158,0.19425 -1.62131,0.47622 -0.51974,0.28196 -1.02754,0.69077 -1.54953,1.2372 -1.04399,1.09287 -2.14477,2.73628 -3.50972,5.01566 -0.11427,0.19081 -0.23038,0.38609 -0.34847,0.58587 m 51.81469,9.2137 c -11.34295,-4.03289 -19.64946,-7.78382 -25.92025,-10.9631 -3.84029,-1.94702 -6.91366,-3.67728 -9.43165,-5.11197 -2.51799,-1.4347 -4.48037,-2.57367 -6.09268,-3.33443 -1.61231,-0.76077 -2.8748,-1.14342 -3.98715,-1.06252 -0.55618,0.0404 -1.07464,0.19686 -1.57964,0.48025 -0.50499,0.28339 -0.99647,0.69377 -1.49882,1.2421 -1.0047,1.09666 -2.05292,2.7451 -3.34121,5.03228 -1.1139,1.97757 -2.40733,4.43264 -4.00657,7.42149 m 57.02399,9.87185 c -13.12927,-4.45062 -22.44542,-8.70388 -29.32977,-12.27508 -3.85744,-2.00101 -6.94439,-3.78715 -9.47404,-5.27196 -2.52964,-1.48481 -4.50158,-2.6682 -6.1217,-3.46533 -1.62012,-0.79713 -2.8885,-1.20755 -4.00611,-1.15145 -0.55881,0.0281 -1.07981,0.17255 -1.58761,0.44269 -0.50781,0.27014 -1.00241,0.66589 -1.50851,1.19665 -1.01221,1.06151 -2.07042,2.66318 -3.37394,4.88168 -0.35124,0.59779 -0.7203,1.24036 -1.11109,1.92917"
           style="fill:none;stroke:#3465a4;stroke-width:1.68756807px;stroke-linecap:butt;stroke-linejoin:miter;stroke-opacity:1" />
      </g>
      <text
         id="text3799"
         y="886.36218"
         x="285.74448"
         style="font-size:20px;font-style:normal;font-variant:normal;font-weight:normal;font-stretch:normal;fill:#4e9a06;fill-opacity:1;stroke:none;font-family:Heathchote;-inkscape-font-specification:Heathchote"
         xml:space="preserve"><tspan
           y="886.36218"
           x="285.74448"
           id="tspan3801"
           sodipodi:role="line">Blu-Tack</tspan></text>
    </g>
    <g
       sodipodi:type="inkscape:box3d"
       style="fill:#4e9a06;fill-opacity:0;stroke:#73d216;stroke-width:1;stroke-linecap:round;stroke-linejoin:round;stroke-miterlimit:4;stroke-opacity:1;stroke-dasharray:none;stroke-dashoffset:0"
       id="g3931"
       inkscape:perspectiveID="#perspective10"
       inkscape:corner0="0.73077057 : -0.70518653 : 0 : 1"
       inkscape:corner7="-0.2692302 : -1.4108645 : 0.25 : 1">
      <path
         sodipodi:type="inkscape:box3dside"
         id="path3941"
         style="fill:#afafde;fill-rule:evenodd;stroke:none"
         inkscape:box3dsidetype="13"
         d="m -557.44243,1367.1497 293.03829,891.8869 38.0394,-394.5608 -275.25726,-580.1229 z" />
      <path
         sodipodi:type="inkscape:box3dside"
         id="path3933"
         style="fill:#353564;fill-rule:evenodd;stroke:none"
         inkscape:box3dsidetype="6"
         d="m -557.44243,959.42499 0,407.72471 55.82043,-82.7968 0,-356.26437 z" />
      <path
         sodipodi:type="inkscape:box3dside"
         id="path3943"
         style="fill:#e9e9ff;fill-rule:evenodd;stroke:none"
         inkscape:box3dsidetype="11"
         d="m -501.622,928.08853 275.25726,216.87297 0,719.5143 -275.25726,-580.1229 z" />
      <path
         sodipodi:type="inkscape:box3dside"
         id="path3935"
         style="fill:#4d4d9f;fill-rule:evenodd;stroke:none"
         inkscape:box3dsidetype="5"
         d="m -557.44243,959.42499 293.03829,333.94771 38.0394,-148.4112 L -501.622,928.08853 z" />
      <path
         sodipodi:type="inkscape:box3dside"
         id="path3939"
         style="fill:#d7d7ff;fill-rule:evenodd;stroke:none"
         inkscape:box3dsidetype="14"
         d="m -264.40414,1293.3727 0,965.6639 38.0394,-394.5608 0,-719.5143 z" />
      <path
         sodipodi:type="inkscape:box3dside"
         id="path3937"
         style="fill:#8686bf;fill-rule:evenodd;stroke:none"
         inkscape:box3dsidetype="3"
         d="m -557.44243,959.42499 293.03829,333.94771 0,965.6639 -293.03829,-891.8869 z" />
    </g>
    <g
       id="g4101"
       transform="translate(-24,25)"
       inkscape:export-filename="/home/jonathan/Programing/Web/shetHappened/images/powerMeter.png"
       inkscape:export-xdpi="90"
       inkscape:export-ydpi="90">
      <g
         id="g4138"
         style="stroke:none;fill:#ffffff;fill-opacity:1"
         transform="translate(-190,-72)">
        <path
           sodipodi:nodetypes="cccccc"
           d="m 318.21641,1031.0136 55.07725,17.8804 51.57007,-24.7105 c -15.42995,-3.5476 -32.78868,-7.0951 -46.28985,-10.6427 -3.41914,-0.3597 -7.57683,0.019 -12.32895,0.9923 l -48.02852,16.4805 z"
           style="fill:#ffffff;stroke:none;stroke-opacity:1;fill-opacity:1"
           id="path4140" />
        <path
           sodipodi:nodetypes="ccccccc"
           d="m 373.29366,1048.894 0,113.3452 3.51802,-1.0667 42.97421,-38.9431 c 5.85347,-4.8162 4.00076,-11.8638 5.07784,-17.8672 l 0,-80.1787 -51.57007,24.7105 z"
           style="fill:#ffffff;stroke:none;stroke-opacity:1;fill-opacity:1"
           id="path4142" />
        <path
           sodipodi:nodetypes="cccsccc"
           d="m 318.21641,1031.0136 55.07725,17.8804 0,113.6987 c -1.60524,-1.0013 -3.23212,-0.2348 -4.87447,-1.2361 -15.57537,-9.4958 -32.5408,-18.9916 -45.61167,-28.4874 -3.56709,-1.9779 -5.02374,-5.3627 -4.59111,-10.007 l 0,-91.8486 z"
           style="fill:#ffffff;stroke:none;stroke-opacity:1;fill-opacity:1"
           id="path4144" />
      </g>
      <g
         transform="translate(-190,-72)"
         style="stroke:#888a85"
         inkscape:path-effect="#path-effect4025"
         id="g4020">
        <path
           inkscape:original-d="m 318.21641,1031.0136 55.07725,17.8804 51.57007,-24.7105 c -15.42995,-3.5476 -32.78868,-7.0951 -46.28985,-10.6427 -3.41914,-0.3597 -7.57683,0.019 -12.32895,0.9923 l -48.02852,16.4805 z"
           id="path3982"
           style="fill:none;stroke:#888a85;stroke-opacity:1"
           d="m 325.6401,1036.184 c 16.5931,5.0587 32.82582,10.3546 48.93579,15.7021 8.62925,-4.1505 17.21927,-8.2846 25.813,-12.4356 m -17.96475,4.3093 c 14.16613,-6.9548 28.53989,-13.7775 43.03334,-20.539 -7.53932,-1.7133 -15.5145,-3.4082 -23.24367,-5.0978 m 12.49037,5.6305 c -13.28053,-2.9962 -26.93686,-6.0205 -37.93766,-9.066 -3.40348,-0.4022 -7.53564,-0.078 -12.24744,0.8208 -7.31926,2.4138 -14.61668,4.8031 -21.91425,7.1595 m 18.01693,-4.307 c -13.61678,4.9617 -27.42269,9.7964 -41.25989,14.6185 1.1e-4,10e-5 2.1e-4,3e-4 3.2e-4,4e-4 16.20508,5.3095 32.36877,10.6026 48.73533,16.0564 m -42.75522,-16.3813 c 15.18006,4.8321 30.75648,9.7427 46.59448,14.6176 11.25062,-5.3117 22.6476,-10.6434 34.13453,-16.0429 m -19.64615,11.8988 c 12.58912,-5.9579 25.46152,-12.2367 38.52193,-18.7494 -10.57594,-2.7947 -21.95131,-5.7742 -32.24673,-8.8144 m 14.27044,5.4375 c -10.7583,-2.3448 -21.33662,-4.7128 -30.15514,-7.0921 -3.37766,-0.3719 -7.4741,-0.01 -12.13076,0.939 -9.65765,3.332 -19.2225,6.6446 -28.73077,9.9383 m 17.76543,-7.017 c -11.32486,3.8726 -22.79802,7.8738 -34.38163,11.9857 -4.5e-4,5e-4 -8.9e-4,10e-4 -0.001,0 10.59822,3.6701 21.09981,7.4371 31.53579,11.2862"
           sodipodi:nodetypes="cccccc" />
        <path
           inkscape:original-d="m 373.29366,1048.894 0,113.3452 3.51802,-1.0667 42.97421,-38.9431 c 5.85347,-4.8162 4.00076,-11.8638 5.07784,-17.8672 l 0,-80.1787 -51.57007,24.7105 z"
           id="path3984"
           style="fill:none;stroke:#888a85;stroke-opacity:1"
           d="m 373.29377,1057.402 c 0.33099,30.9463 -0.11701,61.0175 -0.48622,90.7869 m 1.28291,-25.9405 c -0.10138,12.9661 -0.0545,25.8308 0.0952,38.6982 1.18709,-0.3425 2.37512,-0.6849 3.56408,-1.0273 12.34679,-10.8148 24.85639,-21.6088 37.43233,-32.1611 m -20.35026,17.0818 c 8.54969,-7.4823 16.95218,-15.0196 25.28213,-22.5903 2.92722,-2.416 3.92129,-5.391 4.31482,-8.5168 0.39354,-3.1259 0.18563,-6.4026 0.70871,-9.4192 -0.0495,-9.8043 -0.12157,-19.6247 -0.1675,-29.4472 m -1.98109,18.2551 c 0.45205,-23.4759 0.23695,-47.5045 0.0358,-71.7111 -5.72474,2.5896 -11.4485,5.1667 -17.1586,7.7383 m 16.56025,0.4111 c 0.0276,-1.8114 0.0536,-3.6196 0.0784,-5.4246 -16.93022,8.3741 -33.99909,17.0959 -50.92211,26.2383 0.0978,7.3167 0.21526,14.6899 0.36627,22.1231 m 1.53209,-22.2274 c -0.37517,24.9838 -0.50174,49.8516 -0.98404,75.3747 m 0.93734,-18.6512 c 0.0424,17.9359 -0.11619,36.0814 -0.43452,54.2628 1.15116,-0.3523 2.30159,-0.7045 3.45131,-1.0566 5.04261,-4.6683 10.06196,-9.3331 15.06041,-14.0041 m -13.60866,13.6808 c 13.65387,-12.2771 27.6132,-24.6586 41.76277,-36.9507 3.00233,-2.3686 4.0657,-5.3017 4.54215,-8.377 0.47645,-3.0753 0.36291,-6.2941 0.98151,-9.2501 0.14612,-5.4825 0.30574,-10.9509 0.47575,-16.4001 m -0.85543,24.5932 c 0.2954,-2.8172 0.20168,-5.7346 0.70403,-8.448 0.14464,-26.6939 0.009,-54.2541 0.001,-82.2615 -2.58847,1.1024 -5.17547,2.1995 -7.76051,3.2921 m 7.12512,16.5317 c 0.008,-6.536 0.0226,-13.0686 0.0442,-19.5903 -17.12764,8.4596 -34.19506,17.0098 -51.17602,25.8296 0.0769,7.2232 0.16545,14.4828 0.26701,21.7878"
           sodipodi:nodetypes="ccccccc" />
        <path
           inkscape:original-d="m 318.21641,1031.0136 55.07725,17.8804 0,113.6987 c -1.60524,-1.0013 -3.23212,-0.2348 -4.87447,-1.2361 -15.57537,-9.4958 -32.5408,-18.9916 -45.61167,-28.4874 -3.56709,-1.9779 -5.02374,-5.3627 -4.59111,-10.007 l 0,-91.8486 z"
           id="path3986"
           style="fill:none;stroke:#888a85;stroke-opacity:1"
           d="m 322.84338,1030.6598 c 16.78765,5.5007 33.75207,10.8351 50.92873,16.0572 0.23763,9.6665 0.54081,19.2984 0.91561,28.9047 m -4.73767,-16.5865 c 0.4085,29.7845 0.73056,59.8278 1.96743,89.4755 m 0.28248,-24.1724 c 0.0687,12.8835 0.0676,25.7447 0.0277,38.5557 -0.80554,-0.5104 -1.61612,-0.5773 -2.43161,-0.6448 -0.81549,-0.067 -1.63561,-0.1348 -2.46047,-0.6463 -14.61892,-9.0664 -30.51836,-18.2561 -43.29235,-27.5296 m 23.95482,14.8375 c -9.13735,-5.6272 -17.87105,-11.085 -25.28013,-16.4671 -1.77211,-0.9805 -3.01573,-2.3107 -3.75675,-3.9711 -0.74102,-1.6604 -0.97915,-3.6507 -0.738,-5.9484 0.19974,-18.5569 0.60488,-36.8635 1.01262,-55.2731 m -1.22251,29.4151 c 0.0235,-21.6186 0.025,-43.5428 0.0303,-65.9586 10e-6,-0 10e-6,-0 2e-5,-0 9.58482,2.6651 19.17048,5.222 28.75961,7.6513 m -23.73422,-3.8817 c 15.7596,5.0856 31.72636,10.2313 47.80696,15.3841 0.19538,16.4367 0.5011,32.8803 0.82807,49.2801 m 0.48033,-33.3538 c 0.35018,30.4096 -0.0445,60.6889 -0.35198,92.0907 m 1.53929,-23.2068 c -0.0727,9.4849 -0.13139,18.9993 -0.19352,28.5415 -0.80881,-0.4955 -1.6219,-0.5498 -2.43996,-0.6037 -0.81807,-0.054 -1.64056,-0.1078 -2.46821,-0.6022 -10.76002,-6.4281 -22.19029,-12.8014 -32.61336,-19.1425 m 14.24012,9.0809 c -9.34717,-5.7758 -18.45101,-11.4725 -26.1839,-17.1396 -1.77595,-0.994 -3.02546,-2.3378 -3.7746,-4.0144 -0.74914,-1.6767 -0.99785,-3.686 -0.77256,-6.0096 0.0569,-14.8135 0.12416,-29.5899 0.25343,-44.4329 m -1.14039,23.2253 c -0.34816,-23.2819 -0.35281,-46.891 -0.53241,-70.5668 -2.5e-4,-3e-4 -5.1e-4,-6e-4 -7.6e-4,-9e-4 1.39552,0.4432 2.79035,0.8862 4.18434,1.3289 m -4.54165,11.5787 c -6.3e-4,-4.0681 0.006,-8.1577 0.0205,-12.2671 1.1e-4,0 2.3e-4,-1e-4 3.5e-4,-2e-4 18.42692,5.918 37.01885,11.3952 55.77345,16.5833 0.0939,4.4011 0.19705,8.7858 0.30931,13.1563"
           sodipodi:nodetypes="cccsccc" />
      </g>
      <path
         inkscape:original-d="m 162.00572,978.3126 -14.37483,15.7427 6.35657,6.3081 -9.90753,15.1986 15.26296,-16.0098 -7.02156,-6.358 9.68439,-14.8816 z"
         inkscape:path-effect="#path-effect4027"
         sodipodi:nodetypes="ccccccc"
         id="rect3994"
         d="m 158.52107,985.59085 c -3.28183,3.60865 -6.57859,7.22714 -9.88746,10.85325 2.12883,2.09321 4.25323,4.1892 6.37382,6.2875 -3.299,5.0573 -6.61362,10.1241 -9.93862,15.1962 5.06023,-5.3294 10.10502,-10.6509 15.14385,-15.9717 -2.36143,-2.11264 -4.72395,-4.22514 -7.08682,-6.33812 1.24631,-1.93568 2.49243,-3.87161 3.73866,-5.80804 m 1.3297,10.74966 c 0.6836,-0.7246 1.36762,-1.4489 2.05203,-2.17295 -2.35053,-2.1283 -4.69704,-4.25408 -7.03989,-6.3776 3.22376,-4.96839 6.46039,-9.92886 9.7076,-14.88326 -4.7687,5.25493 -9.52215,10.51861 -14.26431,15.78785 2.13963,2.1118 4.28126,4.22459 6.42458,6.33811 -2.02019,3.15995 -4.03769,6.32095 -6.05309,9.48275"
         style="fill:none;stroke:#f57900;stroke-width:1;stroke-linecap:round;stroke-linejoin:round;stroke-miterlimit:4;stroke-opacity:1;stroke-dasharray:none;stroke-dashoffset:0" />
      <g
         transform="translate(-190,-72)"
         id="g4076">
        <text
           xml:space="preserve"
           style="font-size:9.09723663px;font-style:normal;font-variant:normal;font-weight:normal;font-stretch:normal;fill:#888a85;fill-opacity:1;stroke:none;font-family:NeoTech;-inkscape-font-specification:NeoTech"
           x="410.53613"
           y="729.86963"
           id="text4004"
           transform="matrix(0.79403454,0.49792066,0,1.2593911,0,0)"><tspan
             sodipodi:role="line"
             id="tspan4006"
             x="410.53613"
             y="729.86963"
             style="font-style:normal;font-variant:normal;font-weight:normal;font-stretch:normal;fill:#888a85;font-family:Heathchote;-inkscape-font-specification:Heathchote"> 4  1  3  3  7</tspan></text>
        <g
           id="g4041"
           inkscape:path-effect="#path-effect4048"
           style="stroke:#888a85;stroke-width:0.5;stroke-miterlimit:4;stroke-dasharray:none">
          <path
             transform="matrix(0.84301838,0.53788476,0,1,0,0)"
             style="fill:none;stroke:#888a85;stroke-width:0.54456723;stroke-linecap:round;stroke-linejoin:round;stroke-miterlimit:4;stroke-opacity:1;stroke-dasharray:none;stroke-dashoffset:0"
             d="m 393.07175,905.79382 c 13.81437,-0.092 27.51356,-0.10811 41.1583,-0.0958 -0.0144,4.04422 -0.0335,8.09092 -0.0559,12.13888 -9.12589,0.0165 -18.26783,0.0393 -27.40814,0.0547 m 19.17512,-2.03835 c -13.31404,-0.0445 -26.55539,-0.0428 -39.74981,-0.0156 0.0204,-4.03232 0.0451,-8.06228 0.0734,-12.09046 6.66384,0.0204 13.33741,0.0455 20.01751,0.0728 m -11.73414,1.14582 c 12.61965,-0.0438 25.33216,-0.0954 38.08987,-0.17327 0.009,4.01589 0.0221,8.02913 0.0385,12.03914 -8.05338,-0.0612 -16.09463,-0.13547 -24.13596,-0.22736 m 17.80112,0.55373 c -13.22069,0.0896 -26.51951,0.12676 -39.8372,0.1544 0.008,-4.03223 0.0134,-8.06534 0.0191,-12.09813 14.32979,0.0277 28.65853,0.0595 43.05932,0.14838"
             id="rect4029"
             inkscape:original-d="m 385.93875,904.21576 47.60415,0 0,12.12183 -47.60415,0 0,-12.12183 z" />
          <path
             id="path4033"
             d="m 331.91608,1124.5725 c -0.004,0.721 -0.008,1.4422 -0.0121,2.1635 m 0.85965,-5.2352 c -10e-4,0.201 -0.003,0.4021 -0.004,0.6031"
             style="fill:none;stroke:#888a85;stroke-width:0.5;stroke-linecap:butt;stroke-linejoin:miter;stroke-miterlimit:4;stroke-opacity:1;stroke-dasharray:none"
             inkscape:original-d="m 332.8302,1116.7287 0,12.2912" />
          <path
             style="fill:none;stroke:#888a85;stroke-width:0.5;stroke-linecap:butt;stroke-linejoin:miter;stroke-miterlimit:4;stroke-opacity:1;stroke-dasharray:none"
             d="m 339.76051,1124.4383 c -0.0162,2.0244 -0.0302,4.0481 -0.042,6.071 m 1.50791,-6.7734 c 0.009,2.2176 0.0156,4.4374 0.02,6.6592"
             id="path4035"
             inkscape:original-d="m 340.60918,1121.8608 0,12.2912" />
          <path
             id="path4037"
             d="m 348.71166,1132.461 c 0.005,1.0148 0.0104,2.0293 0.0149,3.0433 m 0.39176,-6.4505 c -0.003,0.6748 -0.006,1.3496 -0.008,2.0244"
             style="fill:none;stroke:#888a85;stroke-width:0.5;stroke-linecap:butt;stroke-linejoin:miter;stroke-miterlimit:4;stroke-opacity:1;stroke-dasharray:none"
             inkscape:original-d="m 348.71161,1126.5077 0,12.2912" />
          <path
             style="fill:none;stroke:#888a85;stroke-width:0.5;stroke-linecap:butt;stroke-linejoin:miter;stroke-miterlimit:4;stroke-opacity:1;stroke-dasharray:none"
             d="m 357.1532,1139.1016 c 0.008,0.8442 0.0162,1.6883 0.0238,2.5324 m -0.97696,-9.7277 c 0.0341,3.5949 0.0608,7.1836 0.0813,10.7667"
             id="path4039"
             inkscape:original-d="m 357.13748,1132.1249 0,12.2912" />
        </g>
      </g>
      <path
         inkscape:path-effect="#path-effect4053"
         transform="translate(-193.5,580.61217)"
         d="m 351.75,451.875 a 4.125,4.125 0 1 1 -8.25,0 4.125,4.125 0 1 1 8.25,0 z"
         sodipodi:ry="4.125"
         sodipodi:rx="4.125"
         sodipodi:cy="451.875"
         sodipodi:cx="347.625"
         id="path4051"
         style="fill:none;stroke:#73d216;stroke-width:0.5;stroke-linecap:round;stroke-linejoin:round;stroke-miterlimit:4;stroke-opacity:1;stroke-dasharray:none;stroke-dashoffset:0"
         sodipodi:type="arc" />
      <g
         transform="translate(-190,-72)"
         style="stroke:#4e9a06"
         id="g4065">
        <path
           style="fill:none;stroke:#4e9a06;stroke-width:1px;stroke-linecap:butt;stroke-linejoin:miter;stroke-opacity:1"
           d="m 351.5,445.5 3.75,-3"
           id="path4055"
           transform="translate(0,652.36217)" />
        <path
           style="fill:none;stroke:#4e9a06;stroke-width:1px;stroke-linecap:butt;stroke-linejoin:miter;stroke-opacity:1"
           d="m 352.75,459.5 2.5,3.75"
           id="path4057"
           transform="translate(0,652.36217)" />
        <path
           style="fill:none;stroke:#4e9a06;stroke-width:1px;stroke-linecap:butt;stroke-linejoin:miter;stroke-opacity:1"
           d="m 338.75,459 -2.5,3.75"
           id="path4059"
           transform="translate(0,652.36217)"
           sodipodi:nodetypes="cc" />
        <path
           style="fill:none;stroke:#4e9a06;stroke-width:1px;stroke-linecap:butt;stroke-linejoin:miter;stroke-opacity:1"
           d="M 335.5,448.5 332,447"
           id="path4061"
           transform="translate(0,652.36217)" />
        <path
           style="fill:none;stroke:#4e9a06;stroke-width:1px;stroke-linecap:butt;stroke-linejoin:miter;stroke-opacity:1"
           d="m 343,443 -1.25,-5.75"
           id="path4063"
           transform="translate(0,652.36217)" />
      </g>
      <path
         sodipodi:type="arc"
         style="fill:none;stroke:#73d216;stroke-width:1.31104517;stroke-linecap:round;stroke-linejoin:round;stroke-miterlimit:4;stroke-opacity:1;stroke-dasharray:none;stroke-dashoffset:0"
         id="path4074"
         sodipodi:cx="347.625"
         sodipodi:cy="451.875"
         sodipodi:rx="4.125"
         sodipodi:ry="4.125"
         d="m 351.75,451.875 a 4.125,4.125 0 1 1 -8.25,0 4.125,4.125 0 1 1 8.25,0 z"
         transform="matrix(0.38050614,0,0,0.38224609,21.77854,860.03267)"
         inkscape:path-effect="#path-effect4053" />
      <g
         transform="translate(-190,-72)"
         id="g4086"
         style="fill:#888a85;stroke:#888a85">
        <path
           inkscape:original-d="m 318.21641,1031.0136 55.07725,17.8804 51.57007,-24.7105 c -15.42995,-3.5476 -32.78868,-7.0951 -46.28985,-10.6427 -3.41914,-0.3597 -7.57683,0.019 -12.32895,0.9923 l -48.02852,16.4805 z"
           inkscape:path-effect="#path-effect4099"
           sodipodi:nodetypes="cccccc"
           d="m 413.68071,1029.542 c 0,0 2.02219,-1.4212 3.65494,-2.9227 1.63275,-1.5015 2.87263,-3.0833 1.44183,-3.4046 -0.83934,-0.1885 -2.97279,0.8034 -5.87216,2.4472 -2.89938,1.6437 -6.57561,3.9393 -10.48733,6.3581 -3.91172,2.4188 -8.06098,4.9609 -11.79561,7.0975 -3.73463,2.1366 -7.04782,3.8678 -9.21214,4.6649 -2.52355,0.9295 -1.97917,0.01 0.15314,-1.9067 2.13231,-1.9158 5.82553,-4.8269 9.59091,-7.8786 3.76538,-3.0517 7.5991,-6.244 10.23492,-8.7222 2.63581,-2.4782 4.0931,-4.2423 3.21136,-4.4377 -1.00646,-0.223 -3.90439,1.2508 -7.78091,3.585 -3.87653,2.3341 -8.75452,5.5287 -13.66313,8.7474 -4.9086,3.2187 -9.84847,6.4615 -13.61456,8.892 -3.76608,2.4306 -6.33681,4.0489 -6.42993,4.0186 -0.20106,-0.065 2.15934,-1.7625 5.67257,-4.28 3.51324,-2.5175 8.15817,-5.8553 12.60376,-9.2018 4.44559,-3.3466 8.69163,-6.7018 11.64495,-9.2542 2.95332,-2.5524 4.63462,-4.3019 4.03509,-4.437 -0.72412,-0.1632 -3.35542,1.3318 -7.01983,3.6551 -3.66442,2.3233 -8.38377,5.475 -13.22023,8.6252 -4.83645,3.1503 -9.78997,6.2991 -13.69548,8.6166 -3.90552,2.3176 -6.74112,3.8039 -7.27913,3.6292 -0.64646,-0.21 1.40302,-2.0553 4.6727,-4.7182 3.26967,-2.6629 7.73832,-6.1435 12.02088,-9.624 4.28257,-3.4806 8.37907,-6.9611 11.15441,-9.6238 2.77534,-2.6628 4.25077,-4.5079 3.38186,-4.7175 -0.99228,-0.2394 -3.72233,1.1596 -7.38631,3.3787 -3.66397,2.2191 -8.28318,5.2582 -12.99812,8.2991 -4.71493,3.0409 -9.52563,6.0835 -13.35675,8.3095 -3.83111,2.226 -6.6614,3.6354 -7.35851,3.4098 -0.80668,-0.261 0.74506,-1.9363 3.39797,-4.2991 2.6529,-2.3627 6.3911,-5.4129 10.03664,-8.4238 3.64553,-3.0108 7.19932,-5.9823 9.67493,-8.1876 2.4756,-2.2053 3.89072,-3.6444 3.31097,-3.5905 -0.76217,0.071 -3.12048,1.5513 -6.32042,3.7282 -3.19995,2.177 -7.25731,5.0503 -11.35514,7.9069 -4.09783,2.8566 -8.23575,5.6965 -11.41886,7.8065 -3.18311,2.11 -5.39489,3.49 -5.58936,3.427 -0.30429,-0.099 1.33308,-1.4637 3.79489,-3.4224 2.46181,-1.9588 5.73537,-4.5113 8.76425,-6.9849 3.02888,-2.4737 5.81476,-4.8684 7.44448,-6.5118 1.62972,-1.6433 2.11934,-2.5352 0.56594,-2.003 -1.84199,0.6311 -4.42783,2.0349 -7.33063,3.7813 -2.9028,1.7464 -6.12725,3.8353 -9.19749,5.8364 -6.14048,4.0024 -11.67941,7.6538 -12.1151,7.5124 -0.65593,-0.2129 3.29865,-3.3324 6.5154,-6.1396 3.21674,-2.8071 5.72758,-5.3021 2.70214,-4.2659 -3.62197,1.2404 -7.29645,3.3842 -10.1093,5.2179 -2.81284,1.8337 -4.7521,3.3573 -4.7521,3.3573 0,0 2.54615,-1.6505 5.5592,-3.4749 3.01305,-1.8244 6.48484,-3.8227 8.51925,-4.5183 2.63189,-0.9 0.0319,1.5711 -3.13578,4.3323 -3.16767,2.7612 -6.93141,5.8126 -6.12985,6.0732 1.02145,0.3321 7.38767,-3.583 13.78427,-7.7648 3.1983,-2.091 6.40933,-4.2486 9.07405,-5.9753 2.66471,-1.7267 4.78993,-3.0226 5.86406,-3.39 1.36317,-0.4663 0.75368,0.4526 -0.94509,2.1009 -1.69876,1.6483 -4.502,4.0259 -7.51302,6.4771 -3.01102,2.4513 -6.23136,4.9761 -8.6256,6.9187 -2.39424,1.9426 -3.95024,3.303 -3.5733,3.4254 0.48661,0.1579 2.97594,-1.1859 6.38064,-3.2922 3.4047,-2.1063 7.70686,-4.9751 11.86709,-7.8667 4.16023,-2.8917 8.178,-5.8063 11.20021,-8.0044 3.02221,-2.1981 5.06571,-3.6797 5.34153,-3.7053 0.45833,-0.043 -1.04387,1.3962 -3.57666,3.5963 -2.5328,2.2 -6.1136,5.1612 -9.76076,8.1633 -3.64716,3.0021 -7.36162,6.0452 -9.9724,8.4088 -2.61078,2.3637 -4.10234,4.048 -3.22392,4.3326 0.98783,0.3201 4.04965,-1.0221 8.04854,-3.2056 3.99888,-2.1835 8.91288,-5.2081 13.65335,-8.2528 4.74047,-3.0447 9.30689,-6.1094 12.8274,-8.3729 3.5205,-2.2635 6.01598,-3.7258 6.67853,-3.5658 0.78578,0.1898 -0.75829,2.019 -3.58418,4.6708 -2.82588,2.6517 -6.95492,6.1259 -11.25052,9.6055 -4.2956,3.4796 -8.7579,6.9647 -12.00061,9.6382 -3.24271,2.6736 -5.24478,4.5355 -4.5271,4.769 0.82594,0.2686 3.89293,-1.1521 7.96726,-3.4286 4.07433,-2.2765 9.13335,-5.409 13.99738,-8.564 4.86403,-3.155 9.53248,-6.3325 13.05408,-8.6993 3.5216,-2.3667 5.91782,-3.9225 6.3093,-3.8342 0.51593,0.1164 -1.23388,1.8507 -4.2373,4.3923 -3.00341,2.5415 -7.28122,5.8904 -11.73896,9.2357 -4.45773,3.3454 -9.0953,6.6873 -12.58068,9.215 -3.48539,2.5277 -5.79762,4.2413 -5.52502,4.33 0.38036,0.1238 3.18276,-1.4293 7.11825,-3.8193 3.9355,-2.39 8.98178,-5.6168 13.91871,-8.8405 4.93693,-3.2236 9.7646,-6.4441 13.49851,-8.8213 3.73392,-2.3772 6.39658,-3.9112 7.06973,-3.7619 0.79776,0.1769 -0.76461,1.9539 -3.49861,4.4562 -2.73401,2.5024 -6.6598,5.73 -10.47981,8.8084 -3.82002,3.0783 -7.53012,6.0073 -9.60365,7.9123 -2.07353,1.905 -2.48205,2.786 0.28569,1.7683 3.12759,-1.15 6.99754,-3.039 11.01018,-5.2186 4.01265,-2.1796 8.16385,-4.6496 11.92866,-6.9617 7.52962,-4.6241 13.50687,-8.616 14.52346,-8.3874 1.26423,0.2842 0.21291,1.7205 -1.18356,3.0858 -1.39647,1.3653 -3.13535,2.6595 -3.13535,2.6595 z"
           style="fill:#888a85;fill-opacity:1;stroke:none"
           id="path4088" />
        <path
           inkscape:original-d="m 373.29366,1048.894 0,113.3452 3.51802,-1.0667 42.97421,-38.9431 c 5.85347,-4.8162 4.00076,-11.8638 5.07784,-17.8672 l 0,-80.1787 -51.57007,24.7105 z"
           inkscape:path-effect="#path-effect4097"
           sodipodi:nodetypes="ccccccc"
           d="m 424.07216,1114.062 c 0,0 -5.42142,9.7569 -8.12687,12.2005 -1.73447,1.5666 0.2949,-3.3989 2.73153,-9.496 2.43663,-6.097 5.26769,-13.3256 5.27063,-16.2849 0.003,-3.3862 -6.04384,7.3346 -12.68454,19.3159 -6.6407,11.9813 -13.90888,25.2231 -15.73975,26.8786 -2.21987,2.0073 4.69929,-12.5889 11.93688,-27.9374 3.6188,-7.6742 7.32208,-15.5366 10.10803,-21.6057 2.78594,-6.069 4.66199,-10.3448 4.66343,-10.846 0.002,-0.7187 -2.09876,3.1222 -5.32454,9.3176 -3.22577,6.1955 -7.58739,14.7454 -12.08342,23.4447 -4.49604,8.6993 -9.12719,17.5479 -12.78167,24.3408 -3.65449,6.7928 -6.32279,11.5298 -6.84894,12.0058 -0.72227,0.6535 1.37933,-3.9402 4.88328,-11.2807 3.50395,-7.3406 8.39584,-17.4281 13.28533,-27.7624 4.8895,-10.3343 9.77531,-20.9154 13.41607,-29.2431 3.64077,-8.3277 6.04832,-14.402 6.05131,-15.7228 0.003,-1.5418 -2.6665,2.9686 -6.75049,10.5701 -4.08399,7.6015 -9.6012,18.2941 -15.25907,29.1166 -5.65787,10.8224 -11.4572,21.7748 -15.92222,29.896 -4.46503,8.1211 -7.57815,13.411 -7.80631,12.9085 -0.27687,-0.6098 2.88899,-7.5665 7.686,-17.7608 4.797,-10.1943 11.20403,-23.6263 17.48978,-37.1869 6.28575,-13.5606 12.44938,-27.2498 17.00459,-37.9584 4.55521,-10.7087 7.52145,-18.4368 7.51786,-20.0752 -0.004,-1.865 -3.13288,3.604 -7.9153,12.841 -4.78242,9.237 -11.24667,22.2421 -17.87505,35.4493 -6.62839,13.2071 -13.42243,26.6164 -18.59498,36.6619 -5.17255,10.0455 -8.69844,16.7272 -8.69854,16.4792 -1.9e-4,-0.4518 3.39784,-7.4136 8.38327,-17.647 4.98542,-10.2334 11.53601,-23.7385 17.92649,-37.2766 6.39048,-13.5382 12.62062,-27.1095 17.21918,-37.4756 4.59856,-10.366 7.58733,-17.5267 7.58736,-18.2437 5e-5,-0.947 -3.09961,5.2236 -7.85453,14.971 -4.75492,9.7475 -11.19167,23.0718 -17.79565,36.4323 -6.60397,13.3605 -13.37544,26.7572 -18.52826,36.6492 -5.15283,9.8921 -8.66097,16.2796 -8.66007,15.6218 0.001,-0.8637 3.29003,-7.9702 8.08219,-18.1311 4.79216,-10.1608 11.06718,-23.3759 17.13523,-36.4568 6.06804,-13.0808 11.92999,-26.0275 16.13713,-35.6513 4.20713,-9.6238 6.78167,-15.9249 6.34247,-15.7146 -0.57218,0.2739 -3.69808,6.4712 -8.15744,15.575 -4.45935,9.1039 -10.27056,21.1143 -16.13931,33.0145 -5.86875,11.9002 -11.79435,23.6901 -16.27566,32.353 -4.48132,8.6629 -7.49855,14.1988 -7.49747,13.5907 0.001,-0.8165 2.75688,-6.9073 6.75192,-15.558 3.99503,-8.6507 9.21508,-19.8613 14.21623,-30.9173 5.00115,-11.056 9.78428,-21.9575 13.07874,-29.9901 3.29446,-8.0326 5.1166,-13.1963 4.23984,-12.7766 -1.00995,0.4834 -3.86315,5.4679 -7.6324,12.6218 -3.76925,7.154 -8.46517,16.4774 -13.1114,25.6388 -4.64623,9.1615 -9.24197,18.1608 -12.68805,24.6666 -3.44607,6.5058 -5.73028,10.518 -5.72805,9.705 0.003,-1.0256 1.93343,-5.7039 4.75817,-12.1326 2.82474,-6.4286 6.5366,-14.6077 10.14233,-22.6347 3.60573,-8.0271 7.10594,-15.9022 9.59571,-21.723 2.48977,-5.8208 3.9773,-9.5873 3.57994,-9.3972 -1.06165,0.5079 -6.83544,12.1959 -12.48401,23.7361 -5.64857,11.5401 -11.1684,22.9324 -11.16857,22.849 -0.001,-0.5135 6.41956,-14.0853 12.53624,-27.4736 6.11667,-13.3884 11.93452,-26.5934 11.47586,-26.3735 -0.72514,0.3478 -6.63303,12.7148 -12.51802,24.6487 -5.88499,11.9338 -11.73576,23.4344 -11.73822,22.0491 -0.003,-1.8189 4.76832,-12.7258 9.20869,-23.0731 4.44036,-10.3473 8.56088,-20.1351 7.68587,-19.7155 -1.14183,0.5474 -5.72025,9.5933 -10.09635,18.4197 -4.3761,8.8265 -8.54585,17.4335 -8.5458,17.1034 1.1e-4,-0.769 3.39392,-8.3061 6.61637,-15.5958 3.22245,-7.2898 6.27717,-14.3322 5.81721,-14.1119 -0.7272,0.3484 -3.42491,5.5994 -5.96885,10.6853 -2.54393,5.0859 -4.93235,10.0068 -4.93283,9.695 -0.001,-0.7537 2.44115,-6.3328 4.75721,-11.6773 2.31606,-5.3445 4.50834,-10.4544 4.12308,-10.2697 -0.65243,0.3127 -3.16286,5.2281 -5.53459,9.8754 -2.37174,4.6474 -4.60204,9.0267 -4.60216,8.2675 -4e-4,-2.4084 5.33521,-14.2151 5.33521,-14.2151 0,0 -1.42926,3.0283 -2.86777,6.4317 -1.43852,3.4035 -2.88838,7.1822 -2.88884,8.6831 -6e-4,1.9459 2.59232,-2.6043 5.14532,-7.6337 2.55299,-5.0294 5.06001,-10.5381 4.99999,-10.5093 0.20721,-0.099 -1.98945,4.8633 -4.26348,10.1129 -2.27403,5.2495 -4.62832,10.7859 -4.62717,11.8341 0.002,1.49 2.75381,-3.6016 5.4788,-9.0674 2.72499,-5.4658 5.41793,-11.3059 5.4325,-11.3128 0.28188,-0.135 -2.7785,6.7611 -5.95965,13.9564 -3.18115,7.1952 -6.4873,14.6897 -6.48795,15.7512 -9.1e-4,1.5004 4.53776,-7.2772 9.09732,-16.4815 4.55955,-9.2043 9.13115,-18.8353 9.5616,-19.0416 0.6973,-0.3342 -3.43149,9.3089 -7.83219,19.5627 -4.40069,10.2537 -9.0853,21.118 -9.08256,23.226 0.003,2.5416 6.22641,-9.1294 12.29606,-21.4375 6.06965,-12.3081 11.96768,-25.2534 11.98222,-25.2603 0.28107,-0.1348 -5.54754,12.9269 -11.62591,26.2223 -6.07837,13.2954 -12.41286,26.8245 -12.41161,27.6247 0.002,1.2302 5.8951,-10.3324 11.72806,-22.2443 5.83297,-11.912 11.5966,-24.1734 11.94651,-24.3408 0.30845,-0.1475 -1.22663,3.6048 -3.73702,9.3893 -2.51039,5.7845 -6.00406,13.6011 -9.59106,21.5821 -3.58701,7.981 -7.268,16.1263 -10.06678,22.5683 -2.79877,6.4419 -4.70865,11.1805 -4.71239,12.3479 -0.004,1.38 2.3722,-2.3911 5.93723,-8.8437 3.56504,-6.4526 8.30459,-15.5866 13.04563,-24.9323 4.74104,-9.3457 9.48247,-18.903 13.18339,-26.2023 3.70092,-7.2993 6.37302,-12.3406 7.02793,-12.654 0.78814,-0.3771 -1.08261,4.773 -4.39919,12.7701 -3.31658,7.9971 -8.09499,18.8412 -13.07885,29.8518 -4.98386,11.0107 -10.1741,22.1879 -14.14384,30.8514 -3.96973,8.6635 -6.70483,14.8132 -6.70698,15.7688 -0.003,1.1641 3.10904,-4.1361 7.71185,-12.7478 4.60282,-8.6117 10.67488,-20.5348 16.63964,-32.6164 5.96475,-12.0817 11.82115,-24.3219 16.21135,-33.5677 4.39021,-9.2458 7.33404,-15.4972 7.55167,-15.6014 0.35063,-0.1678 -2.27334,6.1201 -6.50363,15.709 -4.23029,9.5889 -10.08876,22.4788 -16.14047,35.5147 -6.05171,13.036 -12.29762,26.218 -17.06495,36.3913 -4.76733,10.1733 -8.03615,17.3379 -8.03798,18.3388 -0.002,1.2069 3.50119,-4.7527 8.65679,-14.3501 5.15559,-9.5974 11.93644,-22.8327 18.5512,-36.1771 6.61476,-13.3444 13.06263,-26.7979 17.82252,-36.832 4.75989,-10.0341 7.85711,-16.6486 7.85694,-16.3151 -3e-4,0.5637 -2.99368,7.6137 -7.59709,17.9086 -4.60341,10.2948 -10.83892,23.8344 -17.23482,37.3769 -6.39591,13.5426 -12.95223,27.0882 -17.94291,37.395 -4.99068,10.3068 -8.39368,17.3748 -8.39371,17.9624 -4e-5,0.7913 3.52271,-5.4678 8.69922,-15.2227 5.17651,-9.7549 11.98069,-23.0055 18.61988,-36.1975 6.63919,-13.192 13.11381,-26.3253 17.8999,-35.8453 4.78608,-9.5201 7.91058,-15.4269 7.91274,-14.1659 0.003,1.4874 -2.97573,9.1222 -7.54532,19.7801 -4.56959,10.658 -10.75031,24.3393 -17.04979,37.9197 -6.29949,13.5805 -12.71707,27.0602 -17.51385,37.3151 -4.79678,10.2549 -7.95162,17.2851 -7.64259,17.9664 0.35769,0.7887 3.53179,-4.2109 8.02148,-12.0942 4.4897,-7.8834 10.27742,-18.6506 15.91028,-29.3973 5.63285,-10.7467 11.11097,-21.4729 15.16027,-29.2743 4.0493,-7.8014 6.6876,-12.678 6.68499,-11.7254 -0.003,1.1735 -2.44404,7.2038 -6.12719,15.5408 -3.68315,8.3371 -8.62095,18.9809 -13.54815,29.3816 -4.9272,10.4007 -9.8425,20.5582 -13.32785,27.9227 -3.48535,7.3644 -5.52582,11.9357 -4.67245,11.164 1.04956,-0.9492 3.97399,-5.7777 7.72152,-12.4779 3.74752,-6.7001 8.31027,-15.272 12.6796,-23.7079 4.36933,-8.436 8.54583,-16.7359 11.61888,-22.8923 3.07304,-6.1564 5.05166,-10.1692 5.05119,-10.0308 -0.001,0.356 -1.91003,4.5886 -4.7376,10.6671 -2.82758,6.0785 -6.58176,14.003 -10.23675,21.7428 -7.30997,15.4797 -14.24276,30.2209 -11.76249,27.9792 2.86943,-2.5936 10.12312,-15.2661 16.51094,-26.7282 6.38782,-11.4622 11.93844,-21.7141 11.93515,-19.4663 -0.004,2.6747 -2.96283,10.0181 -5.46628,16.2438 -2.50345,6.2257 -4.53786,11.3335 -2.54805,9.5371 4.74343,-4.2826 8.57932,-13.1002 8.57932,-13.1002 z"
           style="fill:#888a85;fill-opacity:1;stroke:none"
           id="path4090" />
      </g>
    </g>
  </g>
</svg>
